# File produced by Open Asset Import Library (http://www.assimp.sf.net)
# (assimp v5.0.1588609223)

mtllib result.mtl

# 770 vertex positions
v  5.9040179 -2.5310988 -117.9844
v  6.3610077 -2.0079095e-05 -123.24461
v  12.822 -2.0126101e-05 -123.53313
v  12.163527 -2.6721883 -117.28197
v  5.9040184 2.5310602 -117.9844
v  12.163525 2.6721499 -117.28197
v  19.451509 -2.0533711e-05 -125.88718
v  18.766537 -2.5553401 -120.32658
v  18.766533 2.5553005 -120.32656
v  0.10005949 -3.9958324 -109.87302
v  0.060489949 -2.3755279 -119.33624
v  4.1375408 -4.5729942 -103.34937
v  0.042192034 -2.0095109e-05 -123.6386
v  0.060490329 2.375489 -119.33624
v  0.10006133 3.9957962 -109.87301
v  4.1375408 4.5729613 -103.34939
v  10.258327 4.8735557 -99.214386
v  17.374805 4.6202674 -105.10645
v  22.797419 4.0691986 -112.68896
v  24.906689 2.4227948 -123.00107
v  25.876158 -2.091181e-05 -127.7644
v  24.906696 -2.4228349 -123.00108
v  17.374804 -4.6203017 -105.10645
v  22.797421 -4.0692339 -112.68893
v  10.258328 -4.8735881 -99.214386
v  30.203907 -2.6005235 -121.09782
v  31.826628 -2.0672049e-05 -126.73628
v  37.849495 -2.0325228e-05 -124.75536
v  35.853485 -2.7520838 -118.34549
v  30.203907 2.6004839 -121.09782
v  35.853489 2.7520454 -118.34549
v  44.39183 -2.0208916e-05 -123.93055
v  42.553349 -2.6238508 -118.43172
v  42.553345 2.6238122 -118.43172
v  25.234581 -4.6744852 -105.58241
v  25.234581 4.6744509 -105.58241
v  30.07872 4.9898877 -99.779465
v  37.951717 4.7199764 -103.07182
v  44.60532 4.1398363 -108.45441
v  48.772179 2.4683201 -118.15776
v  50.686607 -2.0048952e-05 -122.61606
v  48.772194 -2.4683588 -118.1578
v  37.951721 -4.7200093 -103.07182
v  44.605316 -4.1398697 -108.45441
v  30.078716 -4.9899206 -99.779465
v  53.340179 -2.6245344 -113.9876
v  56.063164 -1.9436298e-05 -119.11434
v  61.450043 -1.8804889e-05 -115.27574
v  58.192078 -2.7595227 -109.42168
v  53.340172 2.6244972 -113.98759
v  58.192078 2.7594869 -109.42168
v  67.680466 -1.838959e-05 -112.94843
v  64.753769 -2.6244025 -107.92337
v  64.753761 2.624367 -107.92335
v  45.364044 -4.7216921 -100.04627
v  45.36404 4.7216597 -100.04626
v  48.766064 5.0055685 -92.484337
v  57.106625 4.7214046 -93.790688
v  64.738747 4.139441 -97.723831
v  70.814888 2.468066 -106.42436
v  73.607307 -1.7942059e-05 -110.42326
v  70.814873 -2.468101 -106.42439
v  57.106617 -4.7214355 -93.79068
v  64.738762 -4.1394715 -97.723839
v  48.766071 -5.005599 -92.484344
v  74.452431 -2.6244414 -101.44677
v  78.174423 -1.723589e-05 -105.94099
v  82.669815 -1.6471055e-05 -101.09862
v  78.277199 -2.7594471 -96.001198
v  74.452438 2.6244085 -101.44677
v  78.277199 2.7594154 -96.001198
v  88.300224 -1.5882313e-05 -97.558868
v  84.404816 -2.6240914 -93.21286
v  84.404808 2.6240606 -93.212845
v  63.771198 -4.7214637 -89.339401
v  63.771198 4.7214336 -89.339401
v  65.568321 5.0053496 -81.252548
v  74.021034 4.7207541 -80.87133
v  82.315956 4.1383872 -83.205719
v  90.049507 2.4673882 -90.52668
v  93.602989 -1.5248583e-05 -93.890823
v  90.049507 -2.467418 -90.526688
v  74.021034 -4.7207804 -80.87133
v  82.315964 -4.138413 -83.205727
v  65.568314 -5.0053773 -81.252556
v  92.622787 -2.6233582 -84.926384
v  97.191879 -1.4433591e-05 -88.592751
v  100.65608 -1.3518135e-05 -82.973724
v  95.302933 -2.7581658 -78.846489
v  92.622787 2.6233304 -84.926376
v  95.302925 2.7581401 -78.846489
v  105.51452 -1.2769985e-05 -78.418571
v  100.80101 -2.6229906 -74.927658
v  100.801 2.6229661 -74.92765
v  79.668839 -4.7199044 -75.17775
v  79.668839 4.7198792 -75.17775
v  79.815491 5.0035024 -66.905342
v  88.086708 4.7191668 -64.883263
v  96.750122 4.1372819 -65.552864
v  105.84897 2.4666767 -71.206543
v  110.02991 -1.2006255e-05 -73.804756
v  105.84897 -2.4667001 -71.206551
v  88.086708 -4.7191882 -64.883263
v  96.75013 -4.1373019 -65.552864
v  79.815491 -5.0035248 -66.905342
v  107.27951 -2.6229496 -65.23008
v  112.52469 -1.1090641e-05 -67.926025
v  114.81628 -1.0066232e-05 -61.749126
v  108.70314 -2.7576594 -58.755367
v  107.27951 2.6229279 -65.230087
v  108.70316 2.7576399 -58.755367
v  118.66853 -9.1954253e-06 -56.330235
v  113.31185 -2.6217082 -53.833916
v  113.31185 2.6216903 -53.833908
v  92.536865 -4.71908 -58.218594
v  92.536858 4.7190604 -58.218586
v  91.015617 5.0024362 -50.093044
v  98.733444 4.7166438 -46.484402
v  107.37167 4.133532 -45.43095
v  117.48638 2.4642615 -49.184952
v  122.1355 -8.2703009e-06 -50.910591
v  117.48637 -2.464278 -49.184963
v  98.733452 -4.7166591 -46.484406
v  107.37166 -4.1335449 -45.430954
v  91.01561 -5.0024524 -50.093048
v  117.55125 -2.6179297 -43.02903
v  123.26505 -7.272663e-06 -44.639286
v  123.78932 -6.2092163e-06 -38.111897
v  117.13572 -2.7424855 -36.382607
v  117.55125 2.6179159 -43.029026
v  117.13573 2.7424736 -36.382607
v  125.39556 -5.1992179e-06 -32.023457
v  119.5434 -2.5845578 -30.634535
v  119.5434 2.5845473 -30.634531
v  101.61149 -4.7109532 -39.060001
v  101.6115 4.7109404 -39.059998
v  97.858917 4.9737463 -31.379044
v  103.40164 4.6458197 -26.308535
v  110.36282 4.0324893 -23.567818
v  120.99245 2.3991423 -25.24826
v  125.90648 -4.1669832e-06 -26.020298
v  120.99246 -2.3991511 -25.248264
v  103.40166 -4.6458282 -26.308531
v  110.36282 -4.032495 -23.567812
v  97.85891 -4.9737568 -31.379044
v  117.62115 -2.5220602 -19.201979
v  123.30108 -3.1776883e-06 -19.652359
v  120.04762 -2.1395838e-06 -13.132671
v  113.68717 -2.627455 -12.745907
v  117.62113 2.522054 -19.201979
v  113.68717 2.6274507 -12.745907
v  118.74846 -1.1040787e-06 -6.7767868
v  113.41202 -2.4733293 -6.5592346
v  113.41203 2.4733274 -6.5592375
v  102.13462 -4.5702572 -18.456455
v  102.13463 4.5702505 -18.456455
v  95.297791 4.8027487 -11.629549
v  98.481514 4.4751577 -5.467432
v  104.30347 3.8849401 -1.3027611
v  113.75459 2.3040514 -0.85562468
v  118.05337 -1.0545465e-07 -0.64727604
v  113.75458 -2.3040519 -0.85562336
v  98.481514 -4.4751596 -5.4674306
v  104.30347 -3.8849387 -1.3027575
v  95.297806 -4.8027525 -11.629546
v  111.24017 -2.4400027 4.5932217
v  116.39796 8.6213777e-07 5.2917638
v  115.31348 1.8275065e-06 11.217155
v  109.20973 -2.559979 10.291726
v  111.24018 2.4400041 4.5932207
v  109.20973 2.5599823 10.291725
v  116.15347 2.8102522e-06 17.212244
v  110.7416 -2.4228184 16.298607
v  110.74159 2.4228237 16.298607
v  96.99115 -4.4340124 2.1902528
v  96.99115 4.4340129 2.1902511
v  91.564514 4.6978621 7.6072316
v  95.814476 4.4004831 14.217434
v  102.08597 3.8329144 19.313921
v  111.91856 2.2705231 21.730064
v  116.46456 3.7461057e-06 22.845587
v  111.91856 -2.2705162 21.730064
v  95.814484 -4.4004784 14.217436
v  102.08596 -3.8329062 19.313923
v  91.564507 -4.6978588 7.6072345
v  108.71656 -2.4217565 26.115686
v  113.96334 4.5335228e-06 27.826565
v  110.85285 5.3610188e-06 32.942657
v  104.98158 -2.5583146 30.905033
v  108.71656 2.4217649 26.115686
v  104.9816 2.5583248 30.905039
v  109.54578 6.322472e-06 38.917942
v  104.62341 -2.4385931 37.109745
v  104.62341 2.4386046 37.109745
v  94.419472 -4.3992357 20.992027
v  94.419472 4.3992419 20.992027
v  88.006508 4.6956139 25.023443
v  90.842667 4.4321051 32.552563
v  96.14447 3.883904 39.21043
v  104.84808 2.3033869 43.290844
v  108.80628 7.3971623e-06 45.144726
v  104.84808 -2.3033724 43.290848
v  90.842667 -4.4320931 32.552559
v  96.144478 -3.8838887 39.210434
v  88.006508 -4.6956048 25.023443
v  102.39097 -2.4717278 48.24601
v  107.13981 8.4138228e-06 50.978367
v  105.66528 9.4723509e-06 56.958111
v  100.01058 -2.6147628 53.566177
v  102.39097 2.4717438 48.24601
v  100.01059 2.6147804 53.566177
v  105.31933 1.0538923e-05 63.430752
v  100.24771 -2.4820466 60.264378
v  100.24769 2.4820664 60.264381
v  89.273392 -4.4715333 40.164398
v  89.273399 4.4715471 40.164398
v  83.636452 4.7761478 43.736668
v  86.157173 4.4916897 51.975235
v  90.526901 3.9151583 59.29393
v  99.510208 2.3235312 65.772774
v  103.69557 1.1496286e-05 68.789543
v  99.510193 -2.3235097 65.772774
v  86.157188 -4.491672 51.975235
v  90.526894 -3.9151371 59.293926
v  83.636444 -4.7761331 43.736664
v  94.006821 -2.4666874 67.848602
v  98.572868 1.1852547e-05 71.641563
v  91.81443 1.2145473e-05 73.402573
v  86.860947 -2.5768392 69.10141
v  94.006828 2.4667096 67.848602
v  86.860947 2.5768619 69.10141
v  85.603279 1.2471006e-05 75.585487
v  81.547516 -2.401366 71.889694
v  81.547493 2.4013891 71.889694
v  81.845863 -4.4717641 57.169533
v  81.845863 4.4717832 57.169529
v  72.499054 4.7125626 56.628635
v  69.753998 4.3443089 61.754353
v  70.013603 3.7173645 67.283653
v  76.403793 2.1960576 74.139236
v  79.318077 1.275962e-05 77.283073
v  76.403793 -2.1960332 74.139244
v  69.753998 -4.3442874 61.754349
v  70.013596 -3.7173414 67.283661
v  72.499046 -4.7125435 56.628635
v  69.14212 -2.2884364 73.764763
v  72.157608 1.2684188e-05 77.59626
v  65.405922 1.2696589e-05 78.078957
v  62.011677 -2.3714001 73.642891
v  69.14212 2.2884603 73.764763
v  62.011677 2.3714237 73.642891
v  60.298756 1.3034555e-05 80.190338
v  57.461498 -2.2141163 76.35006
v  57.461491 2.2141409 76.35006
v  61.314617 -4.2080679 63.10947
v  61.314621 4.2080879 63.10947
v  52.223053 4.4089599 60.828278
v  49.221001 4.0630536 65.863571
v  49.255283 3.4923234 72.034157
v  53.745003 2.0510218 79.256165
v  55.793568 1.3330016e-05 82.558296
v  53.745003 -2.0509963 79.256165
v  49.221001 -4.0630307 65.863571
v  49.255291 -3.4922988 72.034157
v  52.223049 -4.4089398 60.828281
v  48.617424 -2.1808374 79.678101
v  50.737141 1.3633714e-05 83.794022
v  45.812092 1.3922911e-05 85.273415
v  43.416634 -2.2979686 80.435204
v  48.61742 2.1808629 79.678108
v  43.416634 2.2979951 80.435204
v  41.777039 1.4417174e-05 88.307182
v  39.754467 -2.1675065 84.046165
v  39.754471 2.1675339 84.046173
v  43.115345 -4.0211039 68.140388
v  43.115345 4.0211258 68.140388
v  36.497211 4.290699 66.449707
v  33.842907 3.9951131 72.464973
v  33.310661 3.4519606 79.397896
v  36.425659 2.0250096 87.469246
v  37.858707 1.4879241e-05 91.180283
v  36.425667 -2.0249813 87.469238
v  33.842911 -3.9950893 72.464973
v  33.310661 -3.4519341 79.397896
v  36.497211 -4.2906771 66.449699
v  31.849298 -2.1734922 87.73185
v  33.228329 1.5041931e-05 92.289757
v  28.367153 1.5258203e-05 93.50634
v  26.874573 -2.3128326 88.261818
v  31.849295 2.1735208 87.73185
v  26.874577 2.3128617 88.261818
v  23.859415 1.5758806e-05 96.72686
v  22.648706 -2.2085631 92.218216
v  22.648706 2.2085929 92.218216
v  28.393435 -4.0028601 75.017265
v  28.393433 4.0028844 75.017258
v  22.554853 4.3156734 73.115005
v  18.938032 4.0713282 79.959351
v  17.101904 3.5581605 87.969803
v  18.670553 2.0934544 96.563004
v  19.391338 1.6370064e-05 100.47874
v  18.670551 -2.0934227 96.563004
v  18.938038 -4.0713019 79.959351
v  17.101898 -3.5581307 87.969803
v  22.554852 -4.315649 73.115005
v  14.059585 -2.271523 98.152557
v  14.566568 1.6807235e-05 103.16207
v  9.5563927 1.7275626e-05 106.03705
v  9.0659227 -2.4291756 100.03156
v  14.059585 2.2715552 98.152557
v  9.0659227 2.429208 100.03156
v  4.6043081 1.7945553e-05 110.18599
v  4.2577729 -2.3208237 104.76909
v  4.2577729 2.3208582 104.76908
v  13.03374 -4.1474981 83.984604
v  13.033738 4.1475258 83.984604
v  7.6440458 4.4889793 82.644829
v  2.9128358 4.2437406 90.061768
v  -0.26206565 3.7074497 98.169479
v  -0.30745173 2.1896696 108.38087
v  -0.32496417 1.8405453e-05 113.11971
v  -0.30745187 -2.1896346 108.38084
v  2.9128346 -4.2437105 90.061783
v  -0.26206666 -3.7074175 98.169479
v  7.6440468 -4.4889526 82.644836
v  -4.9264164 -2.3539071 106.94711
v  -5.3337383 1.8324692e-05 112.55009
v  -10.513695 1.7965134e-05 110.5649
v  -9.9261599 -2.4902532 104.26964
v  -4.9264154 2.3539419 106.94713
v  -9.9261589 2.4902868 104.26965
v  -15.863335 1.7806444e-05 109.44302
v  -15.252569 -2.3487372 104.09599
v  -15.252569 2.3487709 104.09599
v  -3.3954182 -4.2837415 91.530869
v  -3.3954175 4.2837715 91.530869
v  -8.2270222 4.5799189 86.02449
v  -13.970889 4.2736816 89.11499
v  -18.379837 3.6917932 94.18325
v  -20.186426 2.179579 103.55526
v  -21.019096 1.7571339e-05 107.85212
v  -20.186426 -2.1795454 103.55524
v  -13.970891 -4.2736526 89.11499
v  -18.379837 -3.6917627 94.18325
v  -8.2270241 -4.5798912 86.02449
v  -24.389137 -2.3079643 99.486176
v  -25.74391 1.7013705e-05 104.42937
v  -30.668777 1.6497988e-05 101.3009
v  -29.036655 -2.4296238 95.665916
v  -24.389141 2.3079967 99.486176
v  -29.036659 2.4296548 95.665909
v  -36.368908 1.6362745e-05 100.5447
v  -34.90871 -2.3115754 95.755829
v  -34.90871 2.3116059 95.755852
v  -20.268389 -4.2263441 86.04274
v  -20.268393 4.2263718 86.04274
v  -24.329157 4.5005541 79.400475
v  -31.298941 4.233417 82.426308
v  -37.355049 3.7027235 88.04937
v  -40.775841 2.1866233 96.642265
v  -42.328362 1.642495e-05 100.55689
v  -40.775837 -2.1865919 96.642265
v  -31.298941 -4.2333903 82.426308
v  -37.355045 -3.7026944 88.04937
v  -24.329157 -4.5005283 79.400482
v  -45.704811 -2.3617284 94.85865
v  -48.052395 1.6326918e-05 99.585564
v  -54.222332 1.6322703e-05 98.968307
v  -51.317276 -2.5220239 93.383873
v  -45.704807 2.3617597 94.858658
v  -51.317265 2.5220544 93.383865
v  -61.357109 1.6579861e-05 99.955345
v  -58.676216 -2.4243245 95.005104
v  -58.676216 2.4243557 95.005119
v  -38.70982 -4.2940488 81.766861
v  -38.70982 4.294075 81.766853
v  -42.921089 4.6379833 77.233513
v  -51.798229 4.4162331 81.360542
v  -59.718548 3.8922672 87.18483
v  -65.48912 2.3087809 96.192352
v  -68.150055 1.6663511e-05 100.3579
v  -65.489136 -2.308749 96.192352
v  -51.798229 -4.4162054 81.360542
v  -59.718559 -3.8922379 87.18483
v  -42.921093 -4.6379585 77.233521
v  -69.829468 -2.4964221 93.251396
v  -73.431755 1.6254586e-05 98.069702
v  -78.407501 1.5654101e-05 94.753563
v  -74.165672 -2.6573536 89.318718
v  -69.829453 2.4964526 93.251396
v  -74.165672 2.6573834 89.318703
v  -84.248085 1.5195065e-05 92.23172
v  -80.484375 -2.5380256 87.598755
v  -80.484375 2.5380542 87.598763
v  -59.437138 -4.5037508 80.11158
v  -59.437145 4.5037766 80.111565
v  -61.88345 4.8411303 73.569183
v  -70.471695 4.5849648 74.509125
v  -78.659874 4.0182405 77.643303
v  -86.161972 2.3899674 85.555977
v  -89.611359 1.4658163e-05 89.194969
v  -86.16201 -2.3899398 85.555969
v  -70.471695 -4.5849404 74.509132
v  -78.659882 -4.0182152 77.643303
v  -61.883469 -4.8411059 73.569183
v  -88.745621 -2.5477128 80.226685
v  -93.191261 1.3768179e-05 84.249756
v  -96.338432 1.2813452e-05 78.796257
v  -91.108948 -2.6776402 74.249191
v  -88.745621 2.5477393 80.226685
v  -91.10894 2.6776643 74.249207
v  -100.31026 1.2092547e-05 74.260483
v  -95.664345 -2.5276968 70.387123
v  -95.664352 2.5277197 70.387131
v  -76.131813 -4.5969939 69.46331
v  -76.131805 4.5970163 69.463303
v  -75.95697 4.8731174 61.08284
v  -83.056206 4.5579491 59.274712
v  -90.473808 3.9576216 60.154583
v  -99.269005 2.3508985 66.467117
v  -103.33401 1.1278913e-05 69.377319
v  -99.26902 -2.3508775 66.467117
v  -83.056213 -4.55793 59.274719
v  -90.473816 -3.9576027 60.154594
v  -75.95697 -4.8730974 61.08284
v  -98.877136 -2.4792101 59.841343
v  -103.77882 1.0238648e-05 62.844368
v  -103.61168 9.125456e-06 55.900768
v  -98.042213 -2.5868764 52.613617
v  -98.877136 2.4792297 59.841343
v  -98.042221 2.5868936 52.613613
v  -104.85479 8.192269e-06 49.914177
v  -100.09698 -2.4300435 47.2215
v  -100.097 2.4300587 47.2215
v  -85.292259 -4.4990883 52.04866
v  -85.292236 4.499105 52.048653
v  -81.927246 4.7370415 43.107548
v  -86.965385 4.4031491 39.279816
v  -93.468506 3.8087335 38.326309
v  -102.17492 2.2549415 42.377365
v  -106.15386 7.1809754e-06 44.224358
v  -102.17492 -2.2549276 42.377373
v  -86.965385 -4.4031363 39.279816
v  -93.468513 -3.8087215 38.326309
v  -81.927246 -4.7370272 43.107552
v  -101.24603 -2.3821945 36.237484
v  -106.09048 6.1952951e-06 38.026451
v  -106.36623 5.2077703e-06 31.965067
v  -100.69773 -2.4962723 29.977114
v  -101.24603 2.3822062 36.237488
v  -100.69773 2.4962821 29.977118
v  -108.56898 4.347809e-06 26.723623
v  -103.60357 -2.359359 25.078512
v  -103.60355 2.3593671 25.078516
v  -87.782883 -4.3449249 31.743172
v  -87.782883 4.3449354 31.743176
v  -84.316582 4.6004453 24.238144
v  -90.009277 4.3003664 20.122986
v  -97.225792 3.7395773 18.36067
v  -106.46603 2.2103701 20.642817
v  -110.71199 3.5098947e-06 21.691427
v  -106.46604 -2.2103636 20.642813
v  -90.009277 -4.3003597 20.122988
v  -97.225807 -3.7395718 18.360672
v  -84.316582 -4.6004372 24.238144
v  -105.71992 -2.3617914 15.325953
v  -110.86256 2.635519e-06 16.176701
v  -110.87922 1.7037614e-06 10.457613
v  -104.94586 -2.4972508 9.5856228
v  -105.71992 2.3617961 15.325953
v  -104.94588 2.4972546 9.5856228
v  -112.65116 7.9637147e-07 4.925055
v  -107.51418 -2.3752048 4.2619686
v  -107.51418 2.375206 4.2619677
v  -91.449936 -4.3028145 13.401658
v  -91.449936 4.3028197 13.401658
v  -87.788445 4.5992789 7.0611463
v  -93.39106 4.3289914 1.9940205
v  -100.58265 3.7801857 -1.2059218
v  -110.05639 2.2365398 -0.75723243
v  -114.39943 -1.1354608e-07 -0.54909456
v  -110.05639 -2.2365403 -0.75723177
v  -93.391068 -4.3289895 1.9940217
v  -100.58266 -3.7801867 -1.2059214
v  -87.788445 -4.5992765 7.0611482
v  -109.04667 -2.398567 -5.9990692
v  -114.31284 -1.0124519e-06 -6.177424
v  -114.11931 -1.9777285e-06 -11.991364
v  -107.99007 -2.5418565 -11.662731
v  -109.04668 2.3985651 -5.9990702
v  -107.99008 2.5418527 -11.662731
v  -115.50096 -2.9263258e-06 -17.9247
v  -110.13781 -2.4216347 -17.534657
v  -110.13779 2.4216287 -17.534653
v  -94.43103 -4.3574619 -5.0568566
v  -94.43103 4.35746 -5.0568576
v  -90.256355 4.6667809 -10.713347
v  -95.358017 4.4024711 -16.910299
v  -102.11308 3.8500247 -21.525007
v  -111.90636 2.2815485 -23.016243
v  -116.4175 -3.8856042e-06 -23.701822
v  -111.90637 -2.2815561 -23.016251
v  -95.358025 -4.4024763 -16.910301
v  -102.11309 -3.8500326 -21.525005
v  -90.256348 -4.6667843 -10.713346
v  -109.55068 -2.4437008 -27.901724
v  -114.86874 -4.7478998e-06 -29.142403
v  -112.73759 -5.6462841e-06 -34.656643
v  -106.66273 -2.5842013 -33.112675
v  -109.55068 2.4436917 -27.901722
v  -106.66275 2.5841904 -33.112671
v  -111.96918 -6.6153816e-06 -40.567963
v  -106.74361 -2.4558635 -39.131096
v  -106.74359 2.4558504 -39.131096
v  -94.943283 -4.4293976 -24.032213
v  -94.943283 4.42939 -24.032215
v  -89.078171 4.7310152 -28.645535
v  -92.162315 4.4531202 -35.595924
v  -97.377167 3.8868454 -41.354958
v  -106.62592 2.3052773 -44.717175
v  -110.87509 -7.537039e-06 -46.262016
v  -106.62593 -2.3052921 -44.717178
v  -92.162315 -4.4531312 -35.595924
v  -97.377182 -3.8868589 -41.354958
v  -89.078156 -4.7310257 -28.645536
v  -102.8505 -2.4589863 -48.992828
v  -107.74957 -8.2447741e-06 -51.234413
v  -104.45119 -9.0976464e-06 -56.358421
v  -98.865845 -2.5975935 -53.679173
v  -102.8505 2.4589705 -48.992825
v  -98.865837 2.5975764 -53.679157
v  -102.86235 -9.9960071e-06 -62.426937
v  -98.087204 -2.4785016 -60.033291
v  -98.087204 2.4784822 -60.033283
v  -89.513985 -4.4579649 -42.387104
v  -89.513977 4.4579515 -42.387096
v  -82.71711 4.756628 -45.937859
v  -84.711525 4.4960308 -53.859264
v  -89.172653 3.9459295 -61.058918
v  -97.55584 2.3433547 -66.188507
v  -101.39634 -1.0984926e-05 -68.533844
v  -97.555847 -2.3433754 -66.188515
v  -84.711533 -4.4960475 -53.859257
v  -89.172661 -3.9459496 -61.058914
v  -82.717102 -4.7566428 -45.937862
v  -93.935837 -2.5150487 -70.559593
v  -98.375114 -1.1852011e-05 -73.819008
v  -95.224388 -1.2842298e-05 -79.305969
v  -90.103531 -2.6676586 -75.383026
v  -93.935844 2.5150263 -70.559586
v  -90.103531 2.667634 -75.383018
v  -93.36982 -1.386637e-05 -85.887367
v  -88.927589 -2.5536346 -82.347374
v  -88.927589 2.5536079 -82.347359
v  -81.84214 -4.540628 -61.08292
v  -81.842148 4.5406079 -61.082928
v  -75.286499 4.8628688 -64.036331
v  -76.456505 4.6159019 -73.03334
v  -79.868393 4.062758 -81.4953
v  -87.577026 2.4186471 -88.720818
v  -91.132523 -1.4948539e-05 -92.049171
v  -87.577042 -2.4186759 -88.720825
v  -76.456505 -4.6159258 -73.03334
v  -79.868408 -4.0627856 -81.4953
v  -75.286507 -4.8628893 -64.036324
v  -82.875267 -2.5929384 -92.050018
v  -86.825813 -1.5692001e-05 -96.390739
v  -81.83577 -1.6310494e-05 -100.37183
v  -77.401375 -2.7419248 -95.289841
v  -82.875267 2.5929084 -92.050018
v  -77.401375 2.7418942 -95.289833
v  -77.665901 -1.7216105e-05 -105.41297
v  -73.912437 -2.6129282 -100.92983
v  -73.912437 2.6128953 -100.92981
v  -72.280525 -4.6637182 -79.68177
v  -72.280525 4.663693 -79.681763
v  -64.558136 4.9747043 -80.575935
v  -63.152981 4.7026982 -88.858063
v  -64.246864 4.123281 -97.24086
v  -70.39061 2.4576521 -105.9234
v  -73.216316 -1.7992124e-05 -109.91742
v  -70.390617 -2.4576864 -105.92344
v  -63.152985 -4.7027273 -88.858063
v  -64.246895 -4.1233134 -97.24086
v  -64.558144 -4.974731 -80.575943
v  -64.344704 -2.6136761 -107.3588
v  -67.308823 -1.8402965e-05 -112.36521
v  -61.055241 -1.8832967e-05 -114.561
v  -57.762672 -2.7484789 -108.74503
v  -64.344696 2.6136413 -107.3588
v  -57.762669 2.7484438 -108.74503
v  -55.640598 -1.9495346e-05 -118.25704
v  -52.894398 -2.6133461 -113.17767
v  -52.894398 2.6133091 -113.17766
v  -56.596127 -4.7043476 -93.290123
v  -56.596127 4.7043171 -93.290115
v  -48.235958 4.9883108 -91.917877
v  -44.850002 4.7036705 -99.354759
v  -44.117699 4.1222768 -107.66262
v  -48.32206 2.4570041 -117.26391
v  -50.252193 -1.9973424e-05 -121.67197
v  -48.32206 -2.4570425 -117.26392
v  -44.849998 -4.7037029 -99.354767
v  -44.117695 -4.1223135 -107.66262
v  -48.235962 -4.9883404 -91.91787
v  16.854542 5.8850946 -83.92321
v  7.0979462 6.3019066 -69.202255
v  0.50859886 7.4996901 -5.7811551
v  20.496916 6.3827505 -69.023376
v  0.21235305 5.8139448 -82.737587
v  -6.5437121 6.2970791 -69.069519
v  -16.350248 5.8731699 -83.582664
v  -19.846127 6.3687072 -68.632782
v  -32.244381 5.9378948 -80.489037
v  -32.421516 6.3893833 -63.978531
v  -46.915108 5.9390125 -72.784302
v  -43.270943 6.3707776 -56.183002
v  -58.256977 5.876564 -61.205433
v  -50.70229 6.2842426 -45.203979
v  -65.426003 5.7596421 -46.495396
v  -55.897236 6.2002029 -33.077492
v  -71.303391 5.6972632 -31.908222
v  -59.924011 6.1678042 -21.241886
v  -74.615028 5.6572323 -17.329605
v  -60.833561 6.1166239 -9.1366835
v  -73.776215 5.5871305 -2.4559922
v  -59.317631 6.0642061 2.8830101
v  -71.267853 5.5479164 11.962176
v  -57.109058 6.0711432 14.695885
v  -68.710243 5.618432 26.779854
v  -55.189484 6.1767435 27.328661
v  -65.900032 5.7666445 42.459038
v  -50.847347 6.2797923 39.241436
v  -57.436375 5.8259449 55.26033
v  -41.512573 6.2518773 47.478729
v  -43.565006 5.6998739 62.064415
v  -28.978119 6.0972099 50.433769
v  -27.544977 5.5121751 63.544968
v  -16.499537 5.9941406 52.329712
v  -13.367925 5.495563 67.66288
v  -5.418469 6.027986 55.825085
v  -0.10378614 5.5050855 69.828285
v  5.2883849 5.9592524 53.813442
v  12.666137 5.3578525 63.38258
v  15.395598 5.8301973 47.937305
v  24.581905 5.2515626 56.798416
v  25.017748 5.8061914 43.254974
v  36.555252 5.2946606 51.573811
v  35.913326 5.913805 39.520512
v  51.72813 5.5201483 47.850208
v  48.734821 6.1356483 35.986233
v  65.780251 5.7177935 41.383911
v  56.479702 6.1993103 27.445021
v  71.087379 5.69275 27.436926
v  59.821083 6.1484642 15.225038
v  74.799973 5.6442657 12.590625
v  62.279308 6.1505547 3.1729283
v  77.196297 5.6978426 -2.5581329
v  64.755402 6.2384605 -9.7772474
v  80.72448 5.8455782 -18.836161
v  65.928886 6.3659205 -23.079042
v  78.787811 5.94837 -34.853172
v  61.651939 6.4012189 -35.721302
v  71.098404 5.9555511 -49.616302
v  54.117283 6.4034543 -47.091831
v  60.514671 5.9567871 -62.56654
v  44.482018 6.4047508 -56.782448
v  47.615326 5.9578567 -73.206261
v  33.126369 6.4046216 -64.36734
v  32.855965 5.955812 -81.027512
v  -3.879004 4.5710278 -103.28007
v  -9.9406328 4.8681955 -99.029152
v  -22.486929 4.0574741 -112.22876
v  -24.833349 4.6594 -105.05319
v  -17.052439 4.6107779 -104.76999
v  -29.586718 4.9720778 -99.154411
v  -37.44381 4.7011642 -102.34263
v  -42.113689 -2.6119041 -117.56248
v  -43.975346 -2.0281448e-05 -123.00818
v  -37.484703 -2.033047e-05 -123.93742
v  -35.455803 -2.7403257 -117.57655
v  -42.113689 2.6118655 -117.56248
v  -35.455807 2.7402873 -117.57653
v  -31.542286 -2.0574493e-05 -126.06357
v  -29.8866 -2.5905032 -120.45926
v  -29.886593 2.5904644 -120.45926
v  -37.44381 -4.7011976 -102.34263
v  -24.667616 2.4152389 -122.50352
v  -25.670448 -2.0882278e-05 -127.25048
v  -24.667612 -2.4152796 -122.50354
v  -24.833355 -4.6594338 -105.05319
v  -22.486929 -4.0575104 -112.22873
v  -29.586718 -4.9721107 -99.154411
v  -18.56702 -2.5499277 -119.97423
v  -19.295185 -2.0522913e-05 -125.52521
v  -12.696959 -2.0089357e-05 -123.30759
v  -11.989173 -2.6688404 -117.06696
v  -18.567019 2.5498886 -119.97423
v  -11.989172 2.668802 -117.06696
v  -6.2635841 -2.0049538e-05 -123.13712
v  -5.7635636 -2.5295582 -117.88484
v  -5.7635641 2.5295196 -117.88484
v  -17.052441 -4.6108117 -104.76999
v  -3.8790047 -4.5710602 -103.28007
v  -9.9406347 -4.8682275 -99.029152
v  0.21235338 -5.813971 -82.737579
v  7.0979452 -6.30193 -69.202255
v  0.50860071 -7.4996924 -5.7811527
v  -6.5437136 -6.297102 -69.069519
v  16.854542 -5.8851233 -83.923195
v  20.496914 -6.3827734 -69.023369
v  32.855965 -5.9558387 -81.027512
v  33.126369 -6.4046431 -64.36734
v  47.615326 -5.957881 -73.206261
v  44.48201 -6.4047704 -56.78244
v  60.514683 -5.9568071 -62.566547
v  54.117275 -6.4034696 -47.091827
v  71.098396 -5.9555683 -49.616306
v  61.651932 -6.4012308 -35.721294
v  78.787804 -5.9483819 -34.853165
v  65.928879 -6.3659277 -23.079044
v  80.724495 -5.8455844 -18.836161
v  64.755394 -6.2384644 -9.7772474
v  77.196289 -5.697844 -2.55813
v  62.279297 -6.1505547 3.1729293
v  74.79998 -5.6442623 12.590628
v  59.821083 -6.1484594 15.22504
v  71.087364 -5.6927423 27.436926
v  56.479694 -6.1993022 27.445032
v  65.780251 -5.7177806 41.383907
v  48.734814 -6.1356368 35.986237
v  51.728134 -5.5201335 47.850224
v  35.913326 -5.9137917 39.520512
v  36.555248 -5.2946439 51.573822
v  25.017748 -5.8061771 43.254971
v  24.581909 -5.2515454 56.798428
v  15.395599 -5.830183 47.937305
v  12.666137 -5.357831 63.382591
v  5.2883849 -5.9592352 53.813442
v  -0.10378526 -5.5050631 69.8283
v  -5.418469 -6.0279679 55.825085
v  -13.367927 -5.4955416 67.662895
v  -16.499537 -5.9941239 52.329697
v  -27.544975 -5.5121551 63.544975
v  -28.978123 -6.0971942 50.433765
v  -43.56501 -5.6998544 62.064434
v  -41.512573 -6.251862 47.478725
v  -57.436382 -5.8259273 55.260338
v  -50.847347 -6.2797804 39.24144
v  -65.90004 -5.7666316 42.459038
v  -55.189476 -6.1767354 27.328669
v  -68.710243 -5.6184235 26.779854
v  -57.109058 -6.0711384 14.695887
v  -71.267853 -5.5479126 11.962182
v  -59.317631 -6.0642052 2.8830128
v  -73.776222 -5.5871325 -2.4559903
v  -60.833553 -6.1166272 -9.1366816
v  -74.615021 -5.657239 -17.329607
v  -59.924004 -6.1678109 -21.241882
v  -71.303383 -5.6972737 -31.908222
v  -55.897236 -6.2002134 -33.077492
v  -65.426018 -5.7596579 -46.495407
v  -50.70229 -6.2842569 -45.203976
v  -58.256989 -5.8765841 -61.205437
v  -43.270943 -6.3707962 -56.182995
v  -46.915108 -5.9390373 -72.784317
v  -32.421516 -6.3894043 -63.978542
v  -32.244385 -5.9379225 -80.489044
v  -19.846128 -6.3687291 -68.632782
v  -16.35025 -5.8731961 -83.582672

# 0 UV coordinates

# 768 vertex normals
vn 0.83254528 -0.87126428 -104.30727
vn 0.83255351 0.87123197 -104.30727
vn -37.868793 -0.79332185 -97.370651
vn -37.868706 0.79329097 -97.370682
vn 28.010416 -2.3783281 -93.797577
vn 12.298187 -0.76735765 -103.8007
vn 12.298187 0.7673229 -103.8007
vn 28.010187 2.3782997 -93.797646
vn 10.607693 2.780592 -94.445305
vn -39.884766 2.4910328 -88.579155
vn -45.048874 2.1378255 -88.549644
vn -33.80978 0.73198408 -98.978653
vn -33.809757 -0.73201144 -98.978683
vn -45.048355 -2.1378698 -88.549812
vn -39.884933 -2.4910622 -88.579071
vn 10.607583 -2.7806242 -94.44532
vn 36.414574 -0.92190969 -97.624817
vn 36.414547 0.92187697 -97.624832
vn 8.0836992 -0.89051396 -103.95367
vn 8.0837154 0.89048195 -103.95366
vn 34.81863 -2.6031625 -89.851837
vn 23.015402 -0.84014398 -101.80917
vn 23.015274 0.84011012 -101.80921
vn 34.819023 2.6031287 -89.851715
vn 36.15572 2.9237919 -86.652626
vn -1.8265834 2.7879105 -94.964745
vn -1.8794463 2.4310479 -97.528412
vn 15.760111 0.80549312 -103.25471
vn 15.759799 -0.80552405 -103.25477
vn -1.8795868 -2.431082 -97.528389
vn -1.826681 -2.7879434 -94.964729
vn 36.155815 -2.9238174 -86.652611
vn 64.240852 -0.90090942 -82.096809
vn 64.240723 0.90088588 -82.096886
vn 32.165157 -0.89540243 -99.170555
vn 32.165352 0.89537638 -99.170471
vn 69.928558 -2.4544849 -67.786446
vn 61.659264 -0.81035 -84.297005
vn 61.659138 0.81032753 -84.297081
vn 69.928642 2.4544613 -67.786392
vn 64.101326 2.8352938 -69.584755
vn 22.185047 2.8155215 -92.132797
vn 17.766071 2.4358022 -95.883026
vn 35.73547 0.80748427 -98.142967
vn 35.73555 -0.80751407 -98.142937
vn 17.766157 -2.4358382 -95.88298
vn 22.184917 -2.8155556 -92.132797
vn 64.101402 -2.8353179 -69.584671
vn 79.485023 -0.90517282 -67.430412
vn 79.485085 0.90515065 -67.430351
vn 51.518703 -0.89897966 -90.628448
vn 51.518833 0.89895415 -90.628372
vn 81.909889 -2.468101 -52.516705
vn 77.097687 -0.81527048 -70.439163
vn 77.097649 0.8152464 -70.439201
vn 81.909775 2.4680889 -52.516846
vn 76.704536 2.846875 -55.226723
vn 40.201542 2.8242943 -85.740028
vn 36.606094 2.4425707 -90.335114
vn 54.7108 0.81019956 -88.964203
vn 54.710842 -0.81022692 -88.964195
vn 36.606144 -2.4426019 -90.335083
vn 40.201538 -2.8243301 -85.739952
vn 76.704491 -2.8468871 -55.226879
vn 91.099991 -0.91028041 -50.626705
vn 91.099976 0.91026354 -50.626736
vn 67.862946 -0.90156454 -79.126976
vn 67.863091 0.90154088 -79.126846
vn 90.697136 -2.4778831 -35.049057
vn 89.537628 -0.81891799 -53.732296
vn 89.53756 0.81890106 -53.732403
vn 90.697083 2.4778719 -35.04921
vn 85.965752 2.8600018 -39.033482
vn 55.827915 2.8285813 -76.448273
vn 53.076336 2.4445875 -81.735725
vn 70.596115 0.81276709 -76.960938
vn 70.596153 -0.81279129 -76.960915
vn 53.076279 -2.4446115 -81.735779
vn 55.827946 -2.8286073 -76.448235
vn 85.965752 -2.8600123 -39.03355
vn 99.256386 -0.91707003 -31.735655
vn 99.256378 0.91706026 -31.735641
vn 82.193634 -0.90793055 -64.090637
vn 82.193703 0.90790927 -64.090553
vn 95.666771 -2.4960158 -16.684343
vn 98.223488 -0.82522243 -35.405441
vn 98.223473 0.82521009 -35.405499
vn 95.666779 2.4960113 -16.684155
vn 91.847198 2.8778238 -21.230022
vn 69.868309 2.8459227 -63.666557
vn 68.520622 2.4648213 -69.111664
vn 84.786858 0.82014555 -60.949131
vn 84.786842 -0.82016557 -60.949146
vn 68.520828 -2.4648433 -69.111473
vn 69.868286 -2.8459432 -63.666588
vn 91.847237 -2.87783 -21.229898
vn 104.16579 -0.91406721 -3.1505017
vn 104.16578 0.914065 -3.1505029
vn 99.589218 -0.94918615 -30.415131
vn 99.589226 0.94917476 -30.415127
vn 96.986977 -2.4907651 5.5642414
vn 103.63034 -0.82857263 -12.675983
vn 103.63036 0.82856816 -12.675861
vn 96.986992 2.4907627 5.5642371
vn 94.294273 2.8417332 7.0666041
vn 88.531555 2.9967799 -29.386173
vn 92.292999 2.6804411 -25.679461
vn 103.37232 0.86545593 -14.054475
vn 103.37233 -0.86545968 -14.054477
vn 92.292984 -2.6804523 -25.679453
vn 88.531509 -2.9967904 -29.386303
vn 94.294273 -2.8417313 7.0664701
vn 92.115578 -0.78227401 49.339771
vn 92.115578 0.78229111 49.339771
vn 103.07391 -0.88463116 15.818898
vn 103.07394 0.88463575 15.818775
vn 83.657692 -2.1047566 53.935387
vn 94.979866 -0.73029768 43.810486
vn 94.979851 0.73031354 43.810505
vn 83.657661 2.104769 53.93549
vn 83.13913 2.4308734 51.024155
vn 94.414703 2.8272634 6.9966497
vn 96.682465 2.4887295 -9.6238804
vn 104.29572 0.79351014 6.1161156
vn 104.29572 -0.79351026 6.1161175
vn 96.682495 -2.4887316 -9.6236677
vn 94.414711 -2.8272603 6.996654
vn 83.139069 -2.430855 51.02425
vn 101.29671 -0.89099258 24.707289
vn 101.29669 0.89099962 24.707424
vn 102.80117 -0.87168556 -17.675411
vn 102.8012 0.87168151 -17.675138
vn 85.979752 -2.2944593 47.89473
vn 98.913559 -0.76820004 33.787392
vn 98.913559 0.76820904 33.787388
vn 85.979668 2.2944753 47.894871
vn 88.84697 2.7473569 34.458504
vn 93.762993 2.72036 -18.132504
vn 94.875664 2.3892303 -23.819675
vn 103.85361 0.81333357 -10.999414
vn 103.85365 -0.81333685 -10.999092
vn 94.875755 -2.389245 -23.819149
vn 93.762939 -2.7203646 -18.132805
vn 88.84697 -2.747345 34.458508
vn 87.269386 -0.89695054 57.032467
vn 87.269409 0.89696819 57.032433
vn 102.97978 -0.88676631 16.38998
vn 102.97977 0.8867712 16.389996
vn 76.533493 -2.4522882 60.253304
vn 90.710808 -0.83161551 51.673367
vn 90.710808 0.83163202 51.673367
vn 76.533401 2.4523044 60.253452
vn 78.283051 2.7873375 53.798557
vn 95.53511 2.7102473 2.8093171
vn 98.20713 2.2325952 -10.771514
vn 104.34512 0.75618941 6.5137424
vn 104.34512 -0.7561875 6.5137396
vn 98.207138 -2.2325997 -10.771423
vn 95.535118 -2.7102454 2.8091712
vn 78.282898 -2.7873163 53.79882
vn 99.537865 -0.90843999 30.908964
vn 99.53791 0.90844947 30.908842
vn 104.32476 -0.84339857 3.1147227
vn 104.32475 0.84340155 3.1149759
vn 84.536049 -2.546989 47.074383
vn 98.63633 -0.80307776 34.377682
vn 98.636253 0.80308735 34.377945
vn 84.536095 2.547003 47.074356
vn 85.75032 2.9162972 38.398327
vn 95.817375 2.6748152 2.1111939
vn 96.5233 2.4970894 10.598459
vn 101.22146 0.8584668 25.313581
vn 101.22153 -0.85845941 25.313248
vn 96.523163 -2.4970939 10.599225
vn 95.817406 -2.6748111 2.1107702
vn 85.750298 -2.9162872 38.398327
vn 23.706787 -0.784931 101.76726
vn 23.706789 0.78496504 101.76726
vn 38.421032 -0.85029972 97.026161
vn 38.420971 0.85033095 97.026192
vn 30.448988 -2.3527241 93.206757
vn 46.329567 -0.82116407 93.577423
vn 46.329601 0.82119429 93.577393
vn 30.448895 2.3527553 93.206787
vn 17.969723 2.4534116 95.726151
vn 37.260593 2.7373304 87.791847
vn 36.271889 2.3980949 90.784874
vn 30.983805 0.73785168 99.88797
vn 30.98382 -0.73781806 99.88797
vn 36.271774 -2.3980708 90.784874
vn 37.260754 -2.7373078 87.791733
vn 17.969604 -2.4533818 95.726173
vn 3.8575456 -0.7197572 104.5452
vn 3.8575413 0.71979129 104.5452
vn 43.546597 -0.86868095 94.792252
vn 43.546524 0.86871111 94.792274
vn -11.744991 -1.7494565 100.66118
vn 0.60411888 -0.61788386 104.7871
vn 0.60416311 0.6179207 104.78709
vn -11.744925 1.7494907 100.66118
vn -4.7735691 2.1399794 99.223213
vn 41.319965 2.6784296 86.446388
vn 60.266449 2.436234 76.659119
vn 53.399673 0.79801756 89.786308
vn 53.399525 -0.79798812 89.7864
vn 60.266342 -2.4362073 76.659241
vn 41.319862 -2.6784039 86.446411
vn -4.7734699 -2.1399491 99.223198
vn 25.007505 -0.85908407 101.29608
vn 25.007469 0.85911798 101.29609
vn 65.907166 -0.86759198 80.861748
vn 65.907219 0.86761659 80.861725
vn 3.1395848 -2.1732306 99.096535
vn 19.266281 -0.75117493 102.76743
vn 19.266287 0.75120842 102.76743
vn 3.1395495 2.1732635 99.096527
vn 14.820704 2.5777373 95.398918
vn 63.306808 2.6299083 72.393608
vn 72.230919 2.2814164 66.969841
vn 66.164307 0.78589708 80.873222
vn 66.164322 -0.7858721 80.873222
vn 72.230888 -2.2813964 66.969864
vn 63.306816 -2.6298821 72.393608
vn 14.820648 -2.5777075 95.398911
vn 21.469723 -0.8928293 102.02769
vn 21.469746 0.89286363 102.02769
vn 64.757805 -0.81281888 81.934128
vn 64.757797 0.81284523 81.934143
vn 4.192801 -2.3858936 97.751709
vn 18.777813 -0.81078255 102.73774
vn 18.777691 0.81081498 102.73777
vn 4.1925402 2.3859293 97.751701
vn 18.154408 2.7123051 93.820724
vn 68.10688 2.4074039 70.050949
vn 77.991196 1.9587464 63.10545
vn 71.129265 0.68780637 76.792839
vn 71.129288 -0.68778205 76.792816
vn 77.991119 -1.9587284 63.105545
vn 68.106964 -2.4073784 70.050865
vn 18.154148 -2.7122748 93.820786
vn 47.687859 -0.85854715 92.802925
vn 47.687809 0.85857898 92.802948
vn 69.156937 -0.75723588 78.404251
vn 69.156937 0.75726235 78.404236
vn 32.21225 -2.4564345 91.895622
vn 46.295822 -0.77194858 93.705078
vn 46.295815 0.77197748 93.705078
vn 32.21207 2.4564641 91.895676
vn 39.234249 2.7245469 87.034142
vn 67.629097 2.3393052 71.117287
vn 64.808182 2.1477516 75.226944
vn 57.443382 0.75779349 87.349602
vn 57.443188 -0.75776798 87.349731
vn 64.807953 -2.1477296 75.227119
vn 67.629158 -2.3392806 71.117233
vn 39.234272 -2.7245169 87.034149
vn -40.672684 -0.92042357 95.93264
vn -40.672752 0.92045337 95.932617
vn -15.823725 -0.94893414 102.92142
vn -15.823718 0.94896752 102.92142
vn -29.101318 -2.6222687 91.718575
vn -17.372883 -0.88896424 102.81347
vn -17.373028 0.88899177 102.81345
vn -29.10136 2.6223047 91.718513
vn -38.667816 2.8431299 86.278976
vn -6.8709722 2.9391115 93.514397
vn -8.7957859 2.5961676 96.010239
vn -25.152208 0.84409684 101.29372
vn -25.152334 -0.84406477 101.29369
vn -8.7957525 -2.5961318 96.010262
vn -6.870975 -2.9390805 93.514404
vn -38.667702 -2.8431013 86.279022
vn -59.365681 -0.86382741 85.789398
vn -59.365707 0.8638559 85.789398
vn -8.3719034 -0.88275295 103.94831
vn -8.3716869 0.88278592 103.94834
vn -72.7118 -2.1664808 67.459198
vn -65.508896 -0.75343448 81.48629
vn -65.50901 0.7534585 81.486198
vn -72.711769 2.1665039 67.459221
vn -59.368752 2.6230259 75.720009
vn 2.0761499 2.6650994 95.889992
vn 21.314621 2.165962 96.871361
vn 5.8392067 0.74734396 104.40196
vn 5.8393617 -0.74731177 104.40195
vn 21.314806 -2.165926 96.871353
vn 2.0759473 -2.6650689 95.889977
vn -59.368717 -2.622999 75.720062
vn -15.13491 -0.88324231 103.17969
vn -15.135015 0.88327515 103.17967
vn 17.20854 -0.7552442 103.12406
vn 17.208725 0.75527716 103.12403
vn -34.195015 -2.5384502 90.578949
vn -22.852144 -0.80444711 101.92223
vn -22.852133 0.80448306 101.92223
vn -34.195034 2.538481 90.578934
vn -18.740885 2.8030157 92.995041
vn 21.850279 2.3156967 95.8283
vn 23.094526 2.0176816 97.311127
vn 10.561543 0.71140182 104.09715
vn 10.561612 -0.71136951 104.09715
vn 23.094578 -2.0176446 97.311142
vn 21.850105 -2.3156698 95.828323
vn -18.740835 -2.8029835 92.995064
vn -61.071815 -0.98288685 84.238106
vn -61.071877 0.98291475 84.23806
vn -36.455666 -0.92542613 97.600586
vn -36.455498 0.92545736 97.600647
vn -52.740154 -2.7432616 79.407684
vn -46.216183 -0.88654727 93.475281
vn -46.21608 0.8865757 93.475334
vn -52.740326 2.7432873 79.407578
vn -55.278458 3.06355 74.420715
vn -23.677744 2.8279212 91.659637
vn -26.725306 2.4936318 93.377861
vn -46.090561 0.84746033 93.633354
vn -46.090397 -0.8474263 93.633438
vn -26.725267 -2.4936016 93.377861
vn -23.677809 -2.8278906 91.659622
vn -55.278439 -3.0635271 74.420715
vn -92.67926 -0.94136018 47.513828
vn -92.679306 0.94137496 47.513763
vn -75.294579 -0.97723985 71.829567
vn -75.294525 0.97726202 71.82962
vn -89.2146 -2.555645 37.301403
vn -87.892754 -0.85930532 56.223103
vn -87.892509 0.85932398 56.223484
vn -89.214478 2.5556545 37.301723
vn -87.316055 2.9001389 35.048058
vn -64.653214 3.0468459 66.642082
vn -69.094116 2.7247396 65.878586
vn -85.518082 0.88901258 59.657974
vn -85.517982 -0.88899404 59.658104
vn -69.093788 -2.7247124 65.87899
vn -64.653175 -3.0468235 66.64212
vn -87.316078 -2.9001224 35.048134
vn -104.32846 -0.78637093 -5.7936001
vn -104.32847 0.78636891 -5.7934804
vn -100.95751 -0.90078521 25.969269
vn -100.95744 0.90079278 25.969543
vn -98.721947 -2.1263392 -11.722588
vn -104.54708 -0.7430042 2.3413994
vn -104.54707 0.74300814 2.3415341
vn -98.721977 2.1263344 -11.722417
vn -96.913963 2.4250584 -11.433858
vn -89.893639 2.864372 28.744438
vn -87.990089 2.5673268 39.906582
vn -100.4396 0.81126112 28.624159
vn -100.43946 -0.81125122 28.624626
vn -87.990036 -2.5673156 39.9067
vn -89.893631 -2.8643594 28.744576
vn -96.913994 -2.4250553 -11.43411
vn -104.36161 -0.84777093 -0.22787535
vn -104.36161 0.84777182 -0.22787562
vn -94.353989 -0.9045856 44.298168
vn -94.354042 0.90460098 44.298038
vn -97.172806 -2.1161733 -21.26782
vn -104.4007 -0.73049682 -6.3992672
vn -104.40072 0.73049545 -6.3991237
vn -97.172844 2.1161656 -21.267647
vn -96.115959 2.5683427 -9.7530365
vn -84.008339 2.7901707 44.282375
vn -79.792236 2.4230163 56.203983
vn -93.689232 0.81506062 46.131836
vn -93.689308 -0.81504405 46.131687
vn -79.792114 -2.4229984 56.204147
vn -84.008286 -2.7901556 44.282516
vn -96.115959 -2.5683446 -9.7530384
vn -104.18706 -0.89047247 -4.095953
vn -104.18707 0.89046997 -4.0958004
vn -97.715332 -0.88086265 36.440979
vn -97.715378 0.88087344 36.440845
vn -96.333481 -2.3834887 -17.201778
vn -104.41603 -0.80455637 -2.7596262
vn -104.41603 0.80455709 -2.7596254
vn -96.333504 2.3834856 -17.201544
vn -94.895294 2.7462108 -8.8155384
vn -86.448357 2.6979856 40.977016
vn -84.984192 2.3081055 49.472046
vn -97.654831 0.78382093 37.183205
vn -97.654831 -0.78380877 37.183205
vn -84.984016 -2.3080842 49.472393
vn -86.448303 -2.6979706 40.977165
vn -94.895294 -2.7462115 -8.8157043
vn -103.89696 -0.90730149 -8.3141356
vn -103.89699 0.90729707 -8.3138409
vn -100.57313 -0.86334902 27.737625
vn -100.57323 0.86335886 27.737242
vn -94.877136 -2.4731328 -21.423496
vn -104.17722 -0.81460327 -7.2882333
vn -104.17724 0.81459981 -7.2882342
vn -94.877274 2.4731309 -21.422804
vn -93.742729 2.8247843 -13.382858
vn -90.503952 2.6576567 31.917398
vn -91.718903 2.3161674 35.320705
vn -102.18889 0.79061413 21.763567
vn -102.18886 -0.79060477 21.763708
vn -91.718925 -2.3161569 35.32061
vn -90.50383 -2.6576431 31.917795
vn -93.742729 -2.8247871 -13.38286
vn -95.580269 -0.9039706 -41.589886
vn -95.580261 0.90395445 -41.589893
vn -103.89954 -0.89792097 -8.5485582
vn -103.89954 0.8979187 -8.5485525
vn -86.172928 -2.4873931 -44.901215
vn -98.750198 -0.82707816 -33.89669
vn -98.750282 0.82706881 -33.896378
vn -86.173019 2.4873784 -44.901028
vn -84.915756 2.8156648 -42.068287
vn -95.028503 2.781976 0.0925413
vn -97.523476 2.4267428 3.1711292
vn -103.50066 0.81007075 -13.984845
vn -103.50069 -0.81007373 -13.984687
vn -97.523476 -2.4267433 3.1714618
vn -95.028542 -2.7819698 0.092847697
vn -84.915703 -2.81568 -42.068375
vn -85.287933 -0.88739908 -59.992863
vn -85.287964 0.8873812 -59.992798
vn -102.04735 -0.86740345 -21.652105
vn -102.04732 0.86739618 -21.65222
vn -70.404343 -2.3886962 -67.916801
vn -85.379692 -0.79897171 -60.191452
vn -85.379761 0.79895389 -60.191345
vn -70.404457 2.3886728 -67.916687
vn -74.733727 2.765933 -58.897125
vn -95.235687 2.6748681 -10.747579
vn -98.639633 2.2562392 -1.6604588
vn -102.79809 0.76329136 -18.974342
vn -102.79809 -0.76329708 -18.974344
vn -98.639648 -2.2562373 -1.6605574
vn -95.23568 -2.674875 -10.747451
vn -74.733727 -2.7659519 -58.897118
vn -87.917427 -0.90458304 -55.995884
vn -87.91748 0.9045673 -55.995785
vn -101.46227 -0.83351201 -24.559313
vn -101.46223 0.83350319 -24.559538
vn -72.566643 -2.5212572 -64.273033
vn -87.796875 -0.81065196 -56.56348
vn -87.796928 0.81063551 -56.563393
vn -72.566811 2.5212357 -64.272842
vn -76.299934 2.8681095 -55.495327
vn -95.21759 2.5869246 -15.543916
vn -97.73526 2.24315 -13.998688
vn -99.893867 0.7665531 -30.779303
vn -99.893829 -0.76656079 -30.779419
vn -97.735306 -2.24315 -13.998591
vn -95.217613 -2.5869272 -15.543911
vn -76.299934 -2.8681283 -55.495304
vn -61.517727 -0.92508429 -84.087105
vn -61.517731 0.92505777 -84.087097
vn -83.322708 -0.90275156 -62.635582
vn -83.322609 0.90273058 -62.635719
vn -53.224674 -2.5899787 -80.442337
vn -70.137222 -0.84254014 -77.295006
vn -70.137321 0.8425172 -77.294907
vn -53.22485 2.589952 -80.442215
vn -51.585377 2.9226477 -78.464256
vn -80.508064 2.824069 -49.862953
vn -82.848801 2.4700482 -50.997459
vn -78.210526 0.81921363 -69.189034
vn -78.210617 -0.81923318 -69.188965
vn -82.848961 -2.4700644 -50.997223
vn -80.508133 -2.8240879 -49.862793
vn -51.585407 -2.9226732 -78.464226
vn -30.324512 -0.89305532 -99.754372
vn -30.324461 0.89302218 -99.754379
vn -62.682571 -0.90478277 -83.28154
vn -62.682507 0.90475696 -83.28157
vn -17.057667 -2.4323919 -96.034706
vn -34.79044 -0.80921638 -98.478233
vn -34.790806 0.80919051 -98.478088
vn -17.057981 2.4323561 -96.034691
vn -20.925196 2.804893 -92.512695
vn -62.98357 2.8462222 -70.481415
vn -69.194054 2.4622579 -68.461868
vn -60.653229 0.8112011 -85.021515
vn -60.653194 -0.8112253 -85.021545
vn -69.193993 -2.4622831 -68.461914
vn -62.983589 -2.8462443 -70.4814
vn -20.925146 -2.8049252 -92.512695
vn -9.2350998 6.0679736 -35.16571
vn -0.91540241 6.0899858 -35.35725
vn 7.511333 6.0742593 -35.288292
vn -8.5706797 6.1676002 -30.419395
vn -20.019732 6.1749792 -23.955582
vn -34.452335 6.0748143 -10.62754
vn -38.610863 6.0057292 -5.5079789
vn -37.112278 6.0294671 -8.2512598
vn -39.508816 5.9888015 3.7433426
vn -39.98135 5.9365158 11.905128
vn -41.124908 5.9375377 6.7649083
vn -44.914433 5.8357768 -6.1058207
vn -40.499371 5.9678497 1.0781792
vn -18.795948 6.1449871 26.820547
vn 8.1049109 5.7942686 46.009621
vn 5.6499438 5.7956462 46.329487
vn -17.215576 5.9011497 39.431599
vn 17.677837 5.8535113 41.074978
vn 40.636059 5.4909263 37.930058
vn 25.245386 5.6601343 44.187145
vn 3.9911804 5.5449867 53.999195
vn -7.9423532 5.3100576 59.537708
vn 21.188499 6.0377951 31.142178
vn 38.86121 6.0041308 4.0041509
vn 37.835354 6.013804 7.9939027
vn 36.426296 5.9681916 17.703518
vn 35.661331 5.9784617 18.331305
vn 30.356073 6.1813145 -5.6945968
vn 25.564951 6.188694 -16.617672
vn 21.829704 6.18612 -21.485415
vn 17.058552 6.1841397 -25.566668
vn 8.2420874 6.1761799 -30.046495
vn -12.644258 4.3954954 -76.162582
vn -32.779655 4.5944529 -66.422913
vn 18.800352 5.1344695 -61.159077
vn -0.9502517 4.3691607 -77.594414
vn -14.126608 4.9178133 -66.870163
vn 12.073744 4.9245715 -67.139938
vn 10.084922 4.4121337 -76.289352
vn -20.808542 5.1195326 -60.839859
vn 30.779036 4.6201234 -66.906342
vn -27.459358 4.5780339 -69.082642
vn -45.225441 5.0454855 -47.840015
vn 4.5040798 4.9598198 -67.386261
vn -41.605667 4.6032805 -61.106106
vn -58.272091 5.0063806 -32.288879
vn -13.714163 5.012403 -65.070129
vn -67.788025 4.483438 -34.035812
vn -72.482704 4.6686716 -7.1102519
vn -39.05386 5.1349945 -50.668098
vn -74.458954 4.3578219 -22.448017
vn -72.300758 4.6982241 -1.8770273
vn -55.67593 5.0071316 -36.556862
vn -71.713272 4.4304614 -27.130033
vn -69.503052 4.8540258 2.4000051
vn -55.43235 4.8710217 -41.471134
vn -76.90715 4.4151635 -0.054912791
vn -67.598557 4.6878953 26.211996
vn -62.699715 4.9269795 -26.758627
vn -76.578743 4.3274584 15.926723
vn -64.031532 4.6769657 34.40535
vn -68.639565 4.8821273 -7.2469583
vn -76.126564 4.3459711 16.737741
vn -63.41531 4.8013082 30.819906
vn -70.962486 4.7649808 -5.2721238
vn -80.552788 4.1626768 0.2147709
vn -66.465279 4.9110398 16.468979
vn -74.749161 4.4619784 -14.73466
vn -75.836136 4.401711 13.965573
vn -48.881981 5.1856818 39.552341
vn -75.773071 4.4194694 -12.769724
vn -46.912895 4.6743045 55.583733
vn -12.405602 4.9209852 67.14959
vn -61.634014 5.0486841 22.950527
vn -0.30750737 4.2037878 79.984741
vn 22.308498 4.1963248 76.919449
vn -27.495331 5.1336937 57.793232
vn 1.6994182 4.113719 81.199409
vn 9.1507454 4.5239615 74.653931
vn -9.868124 4.7905202 70.010216
vn -41.625648 4.2147932 68.120453
vn -6.9175673 4.9501781 67.370071
vn -47.411991 4.5473275 57.903858
vn 24.495089 4.3703208 73.614922
vn 54.159142 4.2844386 57.297234
vn -19.409012 4.9406943 65.074829
vn 56.436974 3.8069198 63.680649
vn 62.385071 4.0857291 52.584782
vn 35.390625 4.6239247 64.513954
vn 35.731785 4.111083 72.974075
vn 47.769199 4.4743943 59.103886
vn 20.244087 4.5597024 71.840538
vn 22.388025 4.0032377 79.578354
vn 25.597292 4.507215 71.005707
vn 6.6787515 4.3424764 77.710167
vn -1.0159528 3.5423365 88.061111
vn 17.850132 4.6446867 71.027542
vn -12.661451 3.7275085 85.080246
vn 53.926842 4.6475449 49.481182
vn 67.635727 4.9236307 9.0247202
vn 13.546988 4.5500283 73.557625
vn 77.776421 4.3128567 10.110955
vn 72.274361 4.6847653 -6.3885093
vn 58.806175 5.0398316 29.849428
vn 74.623528 4.4590425 15.582926
vn 69.5784 4.8226471 -8.7041512
vn 59.397869 4.8734183 35.473022
vn 75.554268 4.3164172 20.85231
vn 67.689629 4.9386792 5.8998637
vn 62.994289 4.7316146 34.339432
vn 74.304451 4.3549304 23.099596
vn 62.112564 5.1797872 -10.584949
vn 62.734074 4.4458947 43.669025
vn 68.634491 4.6423922 -25.660398
vn 47.911427 5.0580158 -44.776646
vn 65.953392 5.0024281 9.9429245
vn 61.311398 4.616178 -40.919315
vn 37.57098 5.0290618 -54.463612
vn 64.044029 5.0727577 -12.619022
vn 52.577374 4.6032991 -51.96698
vn 26.474754 5.0268831 -60.685692
vn 60.522778 5.0571604 -25.293194
vn 41.135799 4.5945144 -61.597145
vn 13.757666 5.019876 -64.908035
vn 54.440948 5.0479336 -36.927563
vn 27.76778 4.5924258 -68.705147
vn -5.3353252 4.9716954 -67.092957
vn 45.739601 5.0443101 -47.381863
vn -9.7533932 -0.89067596 -103.80994
vn -9.7533054 0.89064634 -103.80994
vn -38.888901 -0.92000383 -96.670624
vn -38.88895 0.91997021 -96.670609
vn 1.4944372 -2.4209111 -97.602081
vn -16.15103 -0.80244315 -103.20067
vn -16.151121 0.8024103 -103.20064
vn 1.4942938 2.4208796 -97.602081
vn 0.45686281 2.7859731 -94.996277
vn -38.378857 2.9133031 -85.785828
vn -37.574074 2.5945306 -88.801636
vn -25.934618 0.84068102 -101.10369
vn -25.934742 -0.84071434 -101.10368
vn -37.573753 -2.5945621 -88.801758
vn -38.378799 -2.9133329 -85.785828
vn 0.45673102 -2.7860088 -94.996239
vn 36.205921 -0.79771966 -97.991669
vn 36.205925 0.79769021 -97.991661
vn -2.7890437 -0.8721565 -104.27132
vn -2.7890487 0.87212175 -104.27132
vn 43.264111 -2.1556673 -89.3218
vn 31.86047 -0.73752367 -99.61245
vn 31.860331 0.73749214 -99.612503
vn 43.264271 2.155633 -89.321754
vn 38.109879 2.5066965 -89.240952
vn -12.686685 2.7796314 -94.196106
vn -29.775837 2.3723018 -93.292656
vn -14.094201 0.76672834 -103.57328
vn -14.094198 -0.76676202 -103.57328
vn -29.775938 -2.3723309 -93.292633
vn -12.686689 -2.7796621 -94.196106
vn 38.109901 -2.5067275 -89.240929
vn -0.91515309 -6.0899973 -35.357285
vn -9.2351027 -6.0679851 -35.165703
vn 8.2419643 -6.1761894 -30.046526
vn 17.058554 -6.1841469 -25.566715
vn 21.829882 -6.1861253 -21.485317
vn 25.564835 -6.1887016 -16.61772
vn 30.356138 -6.1813159 -5.6944976
vn 35.661293 -5.9784579 18.331158
vn 36.426292 -5.9681849 17.703537
vn 37.835365 -6.0138001 7.9939375
vn 38.861198 -6.0041304 4.004127
vn 21.188435 -6.0377841 31.142244
vn -7.9422274 -5.3100395 59.537689
vn 3.9911797 -5.5449691 53.999203
vn 25.245386 -5.6601214 44.187107
vn 40.636051 -5.4909134 37.930096
vn 17.677835 -5.8534985 41.07497
vn -17.21557 -5.9011369 39.43161
vn 5.6498079 -5.7956314 46.329487
vn 8.1049109 -5.7942543 46.009602
vn -18.795897 -6.144979 26.820566
vn -40.49942 -5.9678478 1.0781647
vn -44.914413 -5.8357787 -6.1058326
vn -41.124928 -5.9375348 6.7649102
vn -39.981339 -5.9365125 11.905166
vn -39.508789 -5.9888015 3.7433014
vn -37.112255 -6.0294709 -8.2512941
vn -38.610912 -6.0057297 -5.5079269
vn -34.452286 -6.0748191 -10.627526
vn -20.019835 -6.1749859 -23.955544
vn -8.5704412 -6.1676111 -30.419439
vn 7.5109572 -6.0742712 -35.288315
vn -0.95025164 -4.3691897 -77.594376
vn 12.07364 -4.9245944 -67.139938
vn -14.12653 -4.9178352 -66.870163
vn -12.644144 -4.3955154 -76.162674
vn 18.80036 -5.13449 -61.159061
vn -32.779678 -4.5944748 -66.422905
vn 27.767586 -4.5924478 -68.705223
vn 45.73954 -5.0443268 -47.381874
vn -5.3353248 -4.9717183 -67.092949
vn 41.135563 -4.5945406 -61.597157
vn 54.440941 -5.0479469 -36.927555
vn 13.757635 -5.0198956 -64.908073
vn 52.577206 -4.6033149 -51.967171
vn 60.522816 -5.0571685 -25.293165
vn 26.474854 -5.0269027 -60.685688
vn 61.311436 -4.61619 -40.919308
vn 64.044113 -5.0727577 -12.618944
vn 37.570919 -5.0290828 -54.463593
vn 68.634529 -4.6424003 -25.660301
vn 65.953438 -5.0024228 9.943038
vn 47.911381 -5.0580306 -44.776665
vn 74.304466 -4.354917 23.099792
vn 62.734097 -4.4458809 43.668972
vn 62.112484 -5.1797905 -10.585269
vn 75.554283 -4.3164096 20.852289
vn 62.994293 -4.7316008 34.339523
vn 67.689659 -4.9386754 5.899929
vn 74.623573 -4.459034 15.583037
vn 59.39782 -4.8734055 35.473171
vn 69.57843 -4.8226452 -8.7043991
vn 77.77652 -4.312849 10.110823
vn 58.806145 -5.0398192 29.84964
vn 72.274345 -4.6847677 -6.3884521
vn 53.926811 -4.6475301 49.481167
vn 13.546961 -4.5499969 73.557747
vn 67.635826 -4.9236236 9.0245104
vn -1.0157005 -3.5423145 88.061035
vn -12.661574 -3.7274756 85.080292
vn 17.850302 -4.6446638 71.027496
vn 22.388165 -4.0032091 79.578354
vn 6.6785398 -4.3424454 77.710258
vn 25.597149 -4.5071959 71.005699
vn 35.73204 -4.1110525 72.97406
vn 20.243752 -4.5596776 71.840645
vn 47.769489 -4.4743719 59.10371
vn 56.43713 -3.8068936 63.680599
vn 35.390434 -4.6239066 64.513992
vn 62.385109 -4.0857086 52.584789
vn 24.494844 -4.370297 73.615021
vn -19.409046 -4.9406729 65.074829
vn 54.159279 -4.2844152 57.297199
vn -41.625648 -4.2147713 68.120453
vn -47.412102 -4.5473056 57.903828
vn -6.9174452 -4.9501562 67.370079
vn 1.6996527 -4.1136851 81.199501
vn -9.8682594 -4.7905002 70.010162
vn 9.1508522 -4.5239339 74.653946
vn -0.3072944 -4.2037582 79.984795
vn -27.495483 -5.1336732 57.793182
vn 22.308565 -4.1962976 76.919472
vn -46.912735 -4.674293 55.583733
vn -61.634075 -5.0486746 22.950508
vn -12.405475 -4.9209599 67.149658
vn -75.835976 -4.4017162 13.965684
vn -75.773125 -4.419466 -12.769962
vn -48.881966 -5.1856666 39.552448
vn -80.552773 -4.1626782 0.2151147
vn -74.749176 -4.4619799 -14.734806
vn -66.465256 -4.911036 16.469002
vn -76.126579 -4.3459659 16.737604
vn -70.962486 -4.7649817 -5.2721376
vn -63.415264 -4.8012967 30.81999
vn -76.578766 -4.3274541 15.926607
vn -68.639557 -4.8821268 -7.2472386
vn -64.031494 -4.6769509 34.405563
vn -76.90712 -4.4151654 -0.055031512
vn -62.699696 -4.9269848 -26.758818
vn -67.598549 -4.6878819 26.21225
vn -71.713211 -4.4304724 -27.130121
vn -55.432323 -4.8710351 -41.471176
vn -69.503052 -4.8540244 2.3999541
vn -74.458885 -4.3578296 -22.448202
vn -55.67588 -5.0071406 -36.557014
vn -72.300896 -4.6982169 -1.8767737
vn -67.788025 -4.4834528 -34.035732
vn -39.053822 -5.1350126 -50.668106
vn -72.482727 -4.6686721 -7.1102562
vn -41.605541 -4.6032996 -61.106224
vn -13.714022 -5.0124192 -65.070259
vn -58.272118 -5.0063906 -32.288845
vn -27.459185 -4.5780597 -69.08268
vn 4.5041747 -4.9598413 -67.386261
vn -45.225636 -5.045496 -47.839962
vn 10.085043 -4.4121537 -76.289413
vn 30.778988 -4.6201463 -66.906357
vn -20.808413 -5.1195531 -60.839905

# Mesh 'Mesh' with 768 faces
g Mesh
usemtl DefaultMaterial
f  1//1 2//1 3//1 4//1
f  2//2 5//2 6//2 3//2
f  4//3 3//3 7//3 8//3
f  3//4 6//4 9//4 7//4
f  10//5 11//5 1//5 12//5
f  11//6 13//6 2//6 1//6
f  13//7 14//7 5//7 2//7
f  14//8 15//8 16//8 5//8
f  5//9 16//9 17//9 6//9
f  6//10 17//10 18//10 9//10
f  9//11 18//11 19//11 20//11
f  7//12 9//12 20//12 21//12
f  8//13 7//13 21//13 22//13
f  23//14 8//14 22//14 24//14
f  25//15 4//15 8//15 23//15
f  12//16 1//16 4//16 25//16
f  26//17 27//17 28//17 29//17
f  27//18 30//18 31//18 28//18
f  29//19 28//19 32//19 33//19
f  28//20 31//20 34//20 32//20
f  24//21 22//21 26//21 35//21
f  22//22 21//22 27//22 26//22
f  21//23 20//23 30//23 27//23
f  20//24 19//24 36//24 30//24
f  30//25 36//25 37//25 31//25
f  31//26 37//26 38//26 34//26
f  34//27 38//27 39//27 40//27
f  32//28 34//28 40//28 41//28
f  33//29 32//29 41//29 42//29
f  43//30 33//30 42//30 44//30
f  45//31 29//31 33//31 43//31
f  35//32 26//32 29//32 45//32
f  46//33 47//33 48//33 49//33
f  47//34 50//34 51//34 48//34
f  49//35 48//35 52//35 53//35
f  48//36 51//36 54//36 52//36
f  44//37 42//37 46//37 55//37
f  42//38 41//38 47//38 46//38
f  41//39 40//39 50//39 47//39
f  40//40 39//40 56//40 50//40
f  50//41 56//41 57//41 51//41
f  51//42 57//42 58//42 54//42
f  54//43 58//43 59//43 60//43
f  52//44 54//44 60//44 61//44
f  53//45 52//45 61//45 62//45
f  63//46 53//46 62//46 64//46
f  65//47 49//47 53//47 63//47
f  55//48 46//48 49//48 65//48
f  66//49 67//49 68//49 69//49
f  67//50 70//50 71//50 68//50
f  69//51 68//51 72//51 73//51
f  68//52 71//52 74//52 72//52
f  64//53 62//53 66//53 75//53
f  62//54 61//54 67//54 66//54
f  61//55 60//55 70//55 67//55
f  60//56 59//56 76//56 70//56
f  70//57 76//57 77//57 71//57
f  71//58 77//58 78//58 74//58
f  74//59 78//59 79//59 80//59
f  72//60 74//60 80//60 81//60
f  73//61 72//61 81//61 82//61
f  83//62 73//62 82//62 84//62
f  85//63 69//63 73//63 83//63
f  75//64 66//64 69//64 85//64
f  86//65 87//65 88//65 89//65
f  87//66 90//66 91//66 88//66
f  89//67 88//67 92//67 93//67
f  88//68 91//68 94//68 92//68
f  84//69 82//69 86//69 95//69
f  82//70 81//70 87//70 86//70
f  81//71 80//71 90//71 87//71
f  80//72 79//72 96//72 90//72
f  90//73 96//73 97//73 91//73
f  91//74 97//74 98//74 94//74
f  94//75 98//75 99//75 100//75
f  92//76 94//76 100//76 101//76
f  93//77 92//77 101//77 102//77
f  103//78 93//78 102//78 104//78
f  105//79 89//79 93//79 103//79
f  95//80 86//80 89//80 105//80
f  106//81 107//81 108//81 109//81
f  107//82 110//82 111//82 108//82
f  109//83 108//83 112//83 113//83
f  108//84 111//84 114//84 112//84
f  104//85 102//85 106//85 115//85
f  102//86 101//86 107//86 106//86
f  101//87 100//87 110//87 107//87
f  100//88 99//88 116//88 110//88
f  110//89 116//89 117//89 111//89
f  111//90 117//90 118//90 114//90
f  114//91 118//91 119//91 120//91
f  112//92 114//92 120//92 121//92
f  113//93 112//93 121//93 122//93
f  123//94 113//94 122//94 124//94
f  125//95 109//95 113//95 123//95
f  115//96 106//96 109//96 125//96
f  126//97 127//97 128//97 129//97
f  127//98 130//98 131//98 128//98
f  129//99 128//99 132//99 133//99
f  128//100 131//100 134//100 132//100
f  124//101 122//101 126//101 135//101
f  122//102 121//102 127//102 126//102
f  121//103 120//103 130//103 127//103
f  120//104 119//104 136//104 130//104
f  130//105 136//105 137//105 131//105
f  131//106 137//106 138//106 134//106
f  134//107 138//107 139//107 140//107
f  132//108 134//108 140//108 141//108
f  133//109 132//109 141//109 142//109
f  143//110 133//110 142//110 144//110
f  145//111 129//111 133//111 143//111
f  135//112 126//112 129//112 145//112
f  146//113 147//113 148//113 149//113
f  147//114 150//114 151//114 148//114
f  149//115 148//115 152//115 153//115
f  148//116 151//116 154//116 152//116
f  144//117 142//117 146//117 155//117
f  142//118 141//118 147//118 146//118
f  141//119 140//119 150//119 147//119
f  140//120 139//120 156//120 150//120
f  150//121 156//121 157//121 151//121
f  151//122 157//122 158//122 154//122
f  154//123 158//123 159//123 160//123
f  152//124 154//124 160//124 161//124
f  153//125 152//125 161//125 162//125
f  163//126 153//126 162//126 164//126
f  165//127 149//127 153//127 163//127
f  155//128 146//128 149//128 165//128
f  166//129 167//129 168//129 169//129
f  167//130 170//130 171//130 168//130
f  169//131 168//131 172//131 173//131
f  168//132 171//132 174//132 172//132
f  164//133 162//133 166//133 175//133
f  162//134 161//134 167//134 166//134
f  161//135 160//135 170//135 167//135
f  160//136 159//136 176//136 170//136
f  170//137 176//137 177//137 171//137
f  171//138 177//138 178//138 174//138
f  174//139 178//139 179//139 180//139
f  172//140 174//140 180//140 181//140
f  173//141 172//141 181//141 182//141
f  183//142 173//142 182//142 184//142
f  185//143 169//143 173//143 183//143
f  175//144 166//144 169//144 185//144
f  186//145 187//145 188//145 189//145
f  187//146 190//146 191//146 188//146
f  189//147 188//147 192//147 193//147
f  188//148 191//148 194//148 192//148
f  184//149 182//149 186//149 195//149
f  182//150 181//150 187//150 186//150
f  181//151 180//151 190//151 187//151
f  180//152 179//152 196//152 190//152
f  190//153 196//153 197//153 191//153
f  191//154 197//154 198//154 194//154
f  194//155 198//155 199//155 200//155
f  192//156 194//156 200//156 201//156
f  193//157 192//157 201//157 202//157
f  203//158 193//158 202//158 204//158
f  205//159 189//159 193//159 203//159
f  195//160 186//160 189//160 205//160
f  206//161 207//161 208//161 209//161
f  207//162 210//162 211//162 208//162
f  209//163 208//163 212//163 213//163
f  208//164 211//164 214//164 212//164
f  204//165 202//165 206//165 215//165
f  202//166 201//166 207//166 206//166
f  201//167 200//167 210//167 207//167
f  200//168 199//168 216//168 210//168
f  210//169 216//169 217//169 211//169
f  211//170 217//170 218//170 214//170
f  214//171 218//171 219//171 220//171
f  212//172 214//172 220//172 221//172
f  213//173 212//173 221//173 222//173
f  223//174 213//174 222//174 224//174
f  225//175 209//175 213//175 223//175
f  215//176 206//176 209//176 225//176
f  226//177 227//177 228//177 229//177
f  227//178 230//178 231//178 228//178
f  229//179 228//179 232//179 233//179
f  228//180 231//180 234//180 232//180
f  224//181 222//181 226//181 235//181
f  222//182 221//182 227//182 226//182
f  221//183 220//183 230//183 227//183
f  220//184 219//184 236//184 230//184
f  230//185 236//185 237//185 231//185
f  231//186 237//186 238//186 234//186
f  234//187 238//187 239//187 240//187
f  232//188 234//188 240//188 241//188
f  233//189 232//189 241//189 242//189
f  243//190 233//190 242//190 244//190
f  245//191 229//191 233//191 243//191
f  235//192 226//192 229//192 245//192
f  246//193 247//193 248//193 249//193
f  247//194 250//194 251//194 248//194
f  249//195 248//195 252//195 253//195
f  248//196 251//196 254//196 252//196
f  244//197 242//197 246//197 255//197
f  242//198 241//198 247//198 246//198
f  241//199 240//199 250//199 247//199
f  240//200 239//200 256//200 250//200
f  250//201 256//201 257//201 251//201
f  251//202 257//202 258//202 254//202
f  254//203 258//203 259//203 260//203
f  252//204 254//204 260//204 261//204
f  253//205 252//205 261//205 262//205
f  263//206 253//206 262//206 264//206
f  265//207 249//207 253//207 263//207
f  255//208 246//208 249//208 265//208
f  266//209 267//209 268//209 269//209
f  267//210 270//210 271//210 268//210
f  269//211 268//211 272//211 273//211
f  268//212 271//212 274//212 272//212
f  264//213 262//213 266//213 275//213
f  262//214 261//214 267//214 266//214
f  261//215 260//215 270//215 267//215
f  260//216 259//216 276//216 270//216
f  270//217 276//217 277//217 271//217
f  271//218 277//218 278//218 274//218
f  274//219 278//219 279//219 280//219
f  272//220 274//220 280//220 281//220
f  273//221 272//221 281//221 282//221
f  283//222 273//222 282//222 284//222
f  285//223 269//223 273//223 283//223
f  275//224 266//224 269//224 285//224
f  286//225 287//225 288//225 289//225
f  287//226 290//226 291//226 288//226
f  289//227 288//227 292//227 293//227
f  288//228 291//228 294//228 292//228
f  284//229 282//229 286//229 295//229
f  282//230 281//230 287//230 286//230
f  281//231 280//231 290//231 287//231
f  280//232 279//232 296//232 290//232
f  290//233 296//233 297//233 291//233
f  291//234 297//234 298//234 294//234
f  294//235 298//235 299//235 300//235
f  292//236 294//236 300//236 301//236
f  293//237 292//237 301//237 302//237
f  303//238 293//238 302//238 304//238
f  305//239 289//239 293//239 303//239
f  295//240 286//240 289//240 305//240
f  306//241 307//241 308//241 309//241
f  307//242 310//242 311//242 308//242
f  309//243 308//243 312//243 313//243
f  308//244 311//244 314//244 312//244
f  304//245 302//245 306//245 315//245
f  302//246 301//246 307//246 306//246
f  301//247 300//247 310//247 307//247
f  300//248 299//248 316//248 310//248
f  310//249 316//249 317//249 311//249
f  311//250 317//250 318//250 314//250
f  314//251 318//251 319//251 320//251
f  312//252 314//252 320//252 321//252
f  313//253 312//253 321//253 322//253
f  323//254 313//254 322//254 324//254
f  325//255 309//255 313//255 323//255
f  315//256 306//256 309//256 325//256
f  326//257 327//257 328//257 329//257
f  327//258 330//258 331//258 328//258
f  329//259 328//259 332//259 333//259
f  328//260 331//260 334//260 332//260
f  324//261 322//261 326//261 335//261
f  322//262 321//262 327//262 326//262
f  321//263 320//263 330//263 327//263
f  320//264 319//264 336//264 330//264
f  330//265 336//265 337//265 331//265
f  331//266 337//266 338//266 334//266
f  334//267 338//267 339//267 340//267
f  332//268 334//268 340//268 341//268
f  333//269 332//269 341//269 342//269
f  343//270 333//270 342//270 344//270
f  345//271 329//271 333//271 343//271
f  335//272 326//272 329//272 345//272
f  346//273 347//273 348//273 349//273
f  347//274 350//274 351//274 348//274
f  349//275 348//275 352//275 353//275
f  348//276 351//276 354//276 352//276
f  344//277 342//277 346//277 355//277
f  342//278 341//278 347//278 346//278
f  341//279 340//279 350//279 347//279
f  340//280 339//280 356//280 350//280
f  350//281 356//281 357//281 351//281
f  351//282 357//282 358//282 354//282
f  354//283 358//283 359//283 360//283
f  352//284 354//284 360//284 361//284
f  353//285 352//285 361//285 362//285
f  363//286 353//286 362//286 364//286
f  365//287 349//287 353//287 363//287
f  355//288 346//288 349//288 365//288
f  366//289 367//289 368//289 369//289
f  367//290 370//290 371//290 368//290
f  369//291 368//291 372//291 373//291
f  368//292 371//292 374//292 372//292
f  364//293 362//293 366//293 375//293
f  362//294 361//294 367//294 366//294
f  361//295 360//295 370//295 367//295
f  360//296 359//296 376//296 370//296
f  370//297 376//297 377//297 371//297
f  371//298 377//298 378//298 374//298
f  374//299 378//299 379//299 380//299
f  372//300 374//300 380//300 381//300
f  373//301 372//301 381//301 382//301
f  383//302 373//302 382//302 384//302
f  385//303 369//303 373//303 383//303
f  375//304 366//304 369//304 385//304
f  386//305 387//305 388//305 389//305
f  387//306 390//306 391//306 388//306
f  389//307 388//307 392//307 393//307
f  388//308 391//308 394//308 392//308
f  384//309 382//309 386//309 395//309
f  382//310 381//310 387//310 386//310
f  381//311 380//311 390//311 387//311
f  380//312 379//312 396//312 390//312
f  390//313 396//313 397//313 391//313
f  391//314 397//314 398//314 394//314
f  394//315 398//315 399//315 400//315
f  392//316 394//316 400//316 401//316
f  393//317 392//317 401//317 402//317
f  403//318 393//318 402//318 404//318
f  405//319 389//319 393//319 403//319
f  395//320 386//320 389//320 405//320
f  406//321 407//321 408//321 409//321
f  407//322 410//322 411//322 408//322
f  409//323 408//323 412//323 413//323
f  408//324 411//324 414//324 412//324
f  404//325 402//325 406//325 415//325
f  402//326 401//326 407//326 406//326
f  401//327 400//327 410//327 407//327
f  400//328 399//328 416//328 410//328
f  410//329 416//329 417//329 411//329
f  411//330 417//330 418//330 414//330
f  414//331 418//331 419//331 420//331
f  412//332 414//332 420//332 421//332
f  413//333 412//333 421//333 422//333
f  423//334 413//334 422//334 424//334
f  425//335 409//335 413//335 423//335
f  415//336 406//336 409//336 425//336
f  426//337 427//337 428//337 429//337
f  427//338 430//338 431//338 428//338
f  429//339 428//339 432//339 433//339
f  428//340 431//340 434//340 432//340
f  424//341 422//341 426//341 435//341
f  422//342 421//342 427//342 426//342
f  421//343 420//343 430//343 427//343
f  420//344 419//344 436//344 430//344
f  430//345 436//345 437//345 431//345
f  431//346 437//346 438//346 434//346
f  434//347 438//347 439//347 440//347
f  432//348 434//348 440//348 441//348
f  433//349 432//349 441//349 442//349
f  443//350 433//350 442//350 444//350
f  445//351 429//351 433//351 443//351
f  435//352 426//352 429//352 445//352
f  446//353 447//353 448//353 449//353
f  447//354 450//354 451//354 448//354
f  449//355 448//355 452//355 453//355
f  448//356 451//356 454//356 452//356
f  444//357 442//357 446//357 455//357
f  442//358 441//358 447//358 446//358
f  441//359 440//359 450//359 447//359
f  440//360 439//360 456//360 450//360
f  450//361 456//361 457//361 451//361
f  451//362 457//362 458//362 454//362
f  454//363 458//363 459//363 460//363
f  452//364 454//364 460//364 461//364
f  453//365 452//365 461//365 462//365
f  463//366 453//366 462//366 464//366
f  465//367 449//367 453//367 463//367
f  455//368 446//368 449//368 465//368
f  466//369 467//369 468//369 469//369
f  467//370 470//370 471//370 468//370
f  469//371 468//371 472//371 473//371
f  468//372 471//372 474//372 472//372
f  464//373 462//373 466//373 475//373
f  462//374 461//374 467//374 466//374
f  461//375 460//375 470//375 467//375
f  460//376 459//376 476//376 470//376
f  470//377 476//377 477//377 471//377
f  471//378 477//378 478//378 474//378
f  474//379 478//379 479//379 480//379
f  472//380 474//380 480//380 481//380
f  473//381 472//381 481//381 482//381
f  483//382 473//382 482//382 484//382
f  485//383 469//383 473//383 483//383
f  475//384 466//384 469//384 485//384
f  486//385 487//385 488//385 489//385
f  487//386 490//386 491//386 488//386
f  489//387 488//387 492//387 493//387
f  488//388 491//388 494//388 492//388
f  484//389 482//389 486//389 495//389
f  482//390 481//390 487//390 486//390
f  481//391 480//391 490//391 487//391
f  480//392 479//392 496//392 490//392
f  490//393 496//393 497//393 491//393
f  491//394 497//394 498//394 494//394
f  494//395 498//395 499//395 500//395
f  492//396 494//396 500//396 501//396
f  493//397 492//397 501//397 502//397
f  503//398 493//398 502//398 504//398
f  505//399 489//399 493//399 503//399
f  495//400 486//400 489//400 505//400
f  506//401 507//401 508//401 509//401
f  507//402 510//402 511//402 508//402
f  509//403 508//403 512//403 513//403
f  508//404 511//404 514//404 512//404
f  504//405 502//405 506//405 515//405
f  502//406 501//406 507//406 506//406
f  501//407 500//407 510//407 507//407
f  500//408 499//408 516//408 510//408
f  510//409 516//409 517//409 511//409
f  511//410 517//410 518//410 514//410
f  514//411 518//411 519//411 520//411
f  512//412 514//412 520//412 521//412
f  513//413 512//413 521//413 522//413
f  523//414 513//414 522//414 524//414
f  525//415 509//415 513//415 523//415
f  515//416 506//416 509//416 525//416
f  526//417 527//417 528//417 529//417
f  527//418 530//418 531//418 528//418
f  529//419 528//419 532//419 533//419
f  528//420 531//420 534//420 532//420
f  524//421 522//421 526//421 535//421
f  522//422 521//422 527//422 526//422
f  521//423 520//423 530//423 527//423
f  520//424 519//424 536//424 530//424
f  530//425 536//425 537//425 531//425
f  531//426 537//426 538//426 534//426
f  534//427 538//427 539//427 540//427
f  532//428 534//428 540//428 541//428
f  533//429 532//429 541//429 542//429
f  543//430 533//430 542//430 544//430
f  545//431 529//431 533//431 543//431
f  535//432 526//432 529//432 545//432
f  546//433 547//433 548//433 549//433
f  547//434 550//434 551//434 548//434
f  549//435 548//435 552//435 553//435
f  548//436 551//436 554//436 552//436
f  544//437 542//437 546//437 555//437
f  542//438 541//438 547//438 546//438
f  541//439 540//439 550//439 547//439
f  540//440 539//440 556//440 550//440
f  550//441 556//441 557//441 551//441
f  551//442 557//442 558//442 554//442
f  554//443 558//443 559//443 560//443
f  552//444 554//444 560//444 561//444
f  553//445 552//445 561//445 562//445
f  563//446 553//446 562//446 564//446
f  565//447 549//447 553//447 563//447
f  555//448 546//448 549//448 565//448
f  566//449 567//449 568//449 569//449
f  567//450 570//450 571//450 568//450
f  569//451 568//451 572//451 573//451
f  568//452 571//452 574//452 572//452
f  564//453 562//453 566//453 575//453
f  562//454 561//454 567//454 566//454
f  561//455 560//455 570//455 567//455
f  560//456 559//456 576//456 570//456
f  570//457 576//457 577//457 571//457
f  571//458 577//458 578//458 574//458
f  574//459 578//459 579//459 580//459
f  572//460 574//460 580//460 581//460
f  573//461 572//461 581//461 582//461
f  583//462 573//462 582//462 584//462
f  585//463 569//463 573//463 583//463
f  575//464 566//464 569//464 585//464
f  586//465 587//465 588//465 589//465
f  587//466 590//466 591//466 588//466
f  589//467 588//467 592//467 593//467
f  588//468 591//468 594//468 592//468
f  584//469 582//469 586//469 595//469
f  582//470 581//470 587//470 586//470
f  581//471 580//471 590//471 587//471
f  580//472 579//472 596//472 590//472
f  590//473 596//473 597//473 591//473
f  591//474 597//474 598//474 594//474
f  594//475 598//475 599//475 600//475
f  592//476 594//476 600//476 601//476
f  593//477 592//477 601//477 602//477
f  603//478 593//478 602//478 604//478
f  605//479 589//479 593//479 603//479
f  595//480 586//480 589//480 605//480
f  606//481 607//481 608//481 609//481
f  610//482 611//482 608//482 607//482
f  612//483 613//483 608//483 611//483
f  614//484 615//484 608//484 613//484
f  616//485 617//485 608//485 615//485
f  618//486 619//486 608//486 617//486
f  620//487 621//487 608//487 619//487
f  622//488 623//488 608//488 621//488
f  624//489 625//489 608//489 623//489
f  626//490 627//490 608//490 625//490
f  628//491 629//491 608//491 627//491
f  630//492 631//492 608//492 629//492
f  632//493 633//493 608//493 631//493
f  634//494 635//494 608//494 633//494
f  636//495 637//495 608//495 635//495
f  638//496 639//496 608//496 637//496
f  640//497 641//497 608//497 639//497
f  642//498 643//498 608//498 641//498
f  644//499 645//499 608//499 643//499
f  646//500 647//500 608//500 645//500
f  648//501 649//501 608//501 647//501
f  650//502 651//502 608//502 649//502
f  652//503 653//503 608//503 651//503
f  654//504 655//504 608//504 653//504
f  656//505 657//505 608//505 655//505
f  658//506 659//506 608//506 657//506
f  660//507 661//507 608//507 659//507
f  662//508 663//508 608//508 661//508
f  664//509 665//509 608//509 663//509
f  666//510 667//510 608//510 665//510
f  668//511 669//511 608//511 667//511
f  670//512 609//512 608//512 669//512
f  19//513 18//513 606//513 36//513
f  18//514 17//514 607//514 606//514
f  36//515 606//515 609//515 37//515
f  15//516 671//516 610//516 16//516
f  671//517 672//517 611//517 610//517
f  16//518 610//518 607//518 17//518
f  673//519 674//519 612//519 675//519
f  674//520 676//520 613//520 612//520
f  675//521 612//521 611//521 672//521
f  599//522 598//522 614//522 677//522
f  598//523 597//523 615//523 614//523
f  677//524 614//524 613//524 676//524
f  579//525 578//525 616//525 596//525
f  578//526 577//526 617//526 616//526
f  596//527 616//527 615//527 597//527
f  559//528 558//528 618//528 576//528
f  558//529 557//529 619//529 618//529
f  576//530 618//530 617//530 577//530
f  539//531 538//531 620//531 556//531
f  538//532 537//532 621//532 620//532
f  556//533 620//533 619//533 557//533
f  519//534 518//534 622//534 536//534
f  518//535 517//535 623//535 622//535
f  536//536 622//536 621//536 537//536
f  499//537 498//537 624//537 516//537
f  498//538 497//538 625//538 624//538
f  516//539 624//539 623//539 517//539
f  479//540 478//540 626//540 496//540
f  478//541 477//541 627//541 626//541
f  496//542 626//542 625//542 497//542
f  459//543 458//543 628//543 476//543
f  458//544 457//544 629//544 628//544
f  476//545 628//545 627//545 477//545
f  439//546 438//546 630//546 456//546
f  438//547 437//547 631//547 630//547
f  456//548 630//548 629//548 457//548
f  419//549 418//549 632//549 436//549
f  418//550 417//550 633//550 632//550
f  436//551 632//551 631//551 437//551
f  399//552 398//552 634//552 416//552
f  398//553 397//553 635//553 634//553
f  416//554 634//554 633//554 417//554
f  379//555 378//555 636//555 396//555
f  378//556 377//556 637//556 636//556
f  396//557 636//557 635//557 397//557
f  359//558 358//558 638//558 376//558
f  358//559 357//559 639//559 638//559
f  376//560 638//560 637//560 377//560
f  339//561 338//561 640//561 356//561
f  338//562 337//562 641//562 640//562
f  356//563 640//563 639//563 357//563
f  319//564 318//564 642//564 336//564
f  318//565 317//565 643//565 642//565
f  336//566 642//566 641//566 337//566
f  299//567 298//567 644//567 316//567
f  298//568 297//568 645//568 644//568
f  316//569 644//569 643//569 317//569
f  279//570 278//570 646//570 296//570
f  278//571 277//571 647//571 646//571
f  296//572 646//572 645//572 297//572
f  259//573 258//573 648//573 276//573
f  258//574 257//574 649//574 648//574
f  276//575 648//575 647//575 277//575
f  239//576 238//576 650//576 256//576
f  238//577 237//577 651//577 650//577
f  256//578 650//578 649//578 257//578
f  219//579 218//579 652//579 236//579
f  218//580 217//580 653//580 652//580
f  236//581 652//581 651//581 237//581
f  199//582 198//582 654//582 216//582
f  198//583 197//583 655//583 654//583
f  216//584 654//584 653//584 217//584
f  179//585 178//585 656//585 196//585
f  178//586 177//586 657//586 656//586
f  196//587 656//587 655//587 197//587
f  159//588 158//588 658//588 176//588
f  158//589 157//589 659//589 658//589
f  176//590 658//590 657//590 177//590
f  139//591 138//591 660//591 156//591
f  138//592 137//592 661//592 660//592
f  156//593 660//593 659//593 157//593
f  119//594 118//594 662//594 136//594
f  118//595 117//595 663//595 662//595
f  136//596 662//596 661//596 137//596
f  99//597 98//597 664//597 116//597
f  98//598 97//598 665//598 664//598
f  116//599 664//599 663//599 117//599
f  79//600 78//600 666//600 96//600
f  78//601 77//601 667//601 666//601
f  96//602 666//602 665//602 97//602
f  59//603 58//603 668//603 76//603
f  58//604 57//604 669//604 668//604
f  76//605 668//605 667//605 77//605
f  39//606 38//606 670//606 56//606
f  38//607 37//607 609//607 670//607
f  56//608 670//608 669//608 57//608
f  678//609 679//609 680//609 681//609
f  679//610 682//610 683//610 680//610
f  681//611 680//611 684//611 685//611
f  680//612 683//612 686//612 684//612
f  604//613 602//613 678//613 687//613
f  602//614 601//614 679//614 678//614
f  601//615 600//615 682//615 679//615
f  600//616 599//616 677//616 682//616
f  682//617 677//617 676//617 683//617
f  683//618 676//618 674//618 686//618
f  686//619 674//619 673//619 688//619
f  684//620 686//620 688//620 689//620
f  685//621 684//621 689//621 690//621
f  691//622 685//622 690//622 692//622
f  693//623 681//623 685//623 691//623
f  687//624 678//624 681//624 693//624
f  694//625 695//625 696//625 697//625
f  695//626 698//626 699//626 696//626
f  697//627 696//627 700//627 701//627
f  696//628 699//628 702//628 700//628
f  692//629 690//629 694//629 703//629
f  690//630 689//630 695//630 694//630
f  689//631 688//631 698//631 695//631
f  688//632 673//632 675//632 698//632
f  698//633 675//633 672//633 699//633
f  699//634 672//634 671//634 702//634
f  702//635 671//635 15//635 14//635
f  700//636 702//636 14//636 13//636
f  701//637 700//637 13//637 11//637
f  704//638 701//638 11//638 10//638
f  705//639 697//639 701//639 704//639
f  703//640 694//640 697//640 705//640
f  706//641 707//641 708//641 709//641
f  710//642 711//642 708//642 707//642
f  712//643 713//643 708//643 711//643
f  714//644 715//644 708//644 713//644
f  716//645 717//645 708//645 715//645
f  718//646 719//646 708//646 717//646
f  720//647 721//647 708//647 719//647
f  722//648 723//648 708//648 721//648
f  724//649 725//649 708//649 723//649
f  726//650 727//650 708//650 725//650
f  728//651 729//651 708//651 727//651
f  730//652 731//652 708//652 729//652
f  732//653 733//653 708//653 731//653
f  734//654 735//654 708//654 733//654
f  736//655 737//655 708//655 735//655
f  738//656 739//656 708//656 737//656
f  740//657 741//657 708//657 739//657
f  742//658 743//658 708//658 741//658
f  744//659 745//659 708//659 743//659
f  746//660 747//660 708//660 745//660
f  748//661 749//661 708//661 747//661
f  750//662 751//662 708//662 749//662
f  752//663 753//663 708//663 751//663
f  754//664 755//664 708//664 753//664
f  756//665 757//665 708//665 755//665
f  758//666 759//666 708//666 757//666
f  760//667 761//667 708//667 759//667
f  762//668 763//668 708//668 761//668
f  764//669 765//669 708//669 763//669
f  766//670 767//670 708//670 765//670
f  768//671 769//671 708//671 767//671
f  770//672 709//672 708//672 769//672
f  10//673 12//673 706//673 704//673
f  12//674 25//674 707//674 706//674
f  704//675 706//675 709//675 705//675
f  24//676 35//676 710//676 23//676
f  35//677 45//677 711//677 710//677
f  23//678 710//678 707//678 25//678
f  44//679 55//679 712//679 43//679
f  55//680 65//680 713//680 712//680
f  43//681 712//681 711//681 45//681
f  64//682 75//682 714//682 63//682
f  75//683 85//683 715//683 714//683
f  63//684 714//684 713//684 65//684
f  84//685 95//685 716//685 83//685
f  95//686 105//686 717//686 716//686
f  83//687 716//687 715//687 85//687
f  104//688 115//688 718//688 103//688
f  115//689 125//689 719//689 718//689
f  103//690 718//690 717//690 105//690
f  124//691 135//691 720//691 123//691
f  135//692 145//692 721//692 720//692
f  123//693 720//693 719//693 125//693
f  144//694 155//694 722//694 143//694
f  155//695 165//695 723//695 722//695
f  143//696 722//696 721//696 145//696
f  164//697 175//697 724//697 163//697
f  175//698 185//698 725//698 724//698
f  163//699 724//699 723//699 165//699
f  184//700 195//700 726//700 183//700
f  195//701 205//701 727//701 726//701
f  183//702 726//702 725//702 185//702
f  204//703 215//703 728//703 203//703
f  215//704 225//704 729//704 728//704
f  203//705 728//705 727//705 205//705
f  224//706 235//706 730//706 223//706
f  235//707 245//707 731//707 730//707
f  223//708 730//708 729//708 225//708
f  244//709 255//709 732//709 243//709
f  255//710 265//710 733//710 732//710
f  243//711 732//711 731//711 245//711
f  264//712 275//712 734//712 263//712
f  275//713 285//713 735//713 734//713
f  263//714 734//714 733//714 265//714
f  284//715 295//715 736//715 283//715
f  295//716 305//716 737//716 736//716
f  283//717 736//717 735//717 285//717
f  304//718 315//718 738//718 303//718
f  315//719 325//719 739//719 738//719
f  303//720 738//720 737//720 305//720
f  324//721 335//721 740//721 323//721
f  335//722 345//722 741//722 740//722
f  323//723 740//723 739//723 325//723
f  344//724 355//724 742//724 343//724
f  355//725 365//725 743//725 742//725
f  343//726 742//726 741//726 345//726
f  364//727 375//727 744//727 363//727
f  375//728 385//728 745//728 744//728
f  363//729 744//729 743//729 365//729
f  384//730 395//730 746//730 383//730
f  395//731 405//731 747//731 746//731
f  383//732 746//732 745//732 385//732
f  404//733 415//733 748//733 403//733
f  415//734 425//734 749//734 748//734
f  403//735 748//735 747//735 405//735
f  424//736 435//736 750//736 423//736
f  435//737 445//737 751//737 750//737
f  423//738 750//738 749//738 425//738
f  444//739 455//739 752//739 443//739
f  455//740 465//740 753//740 752//740
f  443//741 752//741 751//741 445//741
f  464//742 475//742 754//742 463//742
f  475//743 485//743 755//743 754//743
f  463//744 754//744 753//744 465//744
f  484//745 495//745 756//745 483//745
f  495//746 505//746 757//746 756//746
f  483//747 756//747 755//747 485//747
f  504//748 515//748 758//748 503//748
f  515//749 525//749 759//749 758//749
f  503//750 758//750 757//750 505//750
f  524//751 535//751 760//751 523//751
f  535//752 545//752 761//752 760//752
f  523//753 760//753 759//753 525//753
f  544//754 555//754 762//754 543//754
f  555//755 565//755 763//755 762//755
f  543//756 762//756 761//756 545//756
f  564//757 575//757 764//757 563//757
f  575//758 585//758 765//758 764//758
f  563//759 764//759 763//759 565//759
f  584//760 595//760 766//760 583//760
f  595//761 605//761 767//761 766//761
f  583//762 766//762 765//762 585//762
f  604//763 687//763 768//763 603//763
f  687//764 693//764 769//764 768//764
f  603//765 768//765 767//765 605//765
f  692//766 703//766 770//766 691//766
f  703//767 705//767 709//767 770//767
f  691//768 770//768 769//768 693//768

