# File produced by Open Asset Import Library (http://www.assimp.sf.net)
# (assimp v5.0.1588609223)

mtllib result.mtl

# 129 vertex positions
v  23.236929 9.9982491 -28.253679
v  21.893295 9.974596 -28.894541
v  21.892277 14.89226 -28.893011
v  23.26194 14.895171 -28.291142
v  -12.350704 9.9393082 25.91267
v  -8.8231373 9.9448462 28.879002
v  -8.8231373 14.876112 28.879002
v  -12.350704 14.87051 25.91267
v  10.930059 9.8639994 -27.065905
v  7.6301994 9.8177595 -25.11722
v  7.6305156 14.733696 -25.117695
v  10.931301 14.77943 -27.067764
v  14.151917 9.9517488 27.316938
v  17.71875 9.9315414 25.810255
v  17.716053 14.86437 25.814293
v  14.152118 14.882973 27.316639
v  10.956884 9.9532127 29.139812
v  10.956885 14.884537 29.139812
v  39.523613 9.8770237 12.993467
v  37.9021 9.9487085 8.6991596
v  37.919014 14.857447 8.6738234
v  39.527538 14.797594 12.987581
v  -7.025795 9.6207504 -21.101631
v  -11.708055 9.6020613 -19.563087
v  -11.708055 14.519686 -19.563087
v  -7.025795 14.537681 -21.101631
v  21.260302 9.9305534 24.13788
v  21.246277 14.871231 24.158892
v  14.342129 9.9094667 -27.998608
v  14.340299 14.827377 -27.995863
v  6.6184063 9.9533653 30.604803
v  6.6184068 14.884631 30.604803
v  25.360497 9.9312601 22.593626
v  28.351061 9.9240856 21.946087
v  28.363388 14.841828 21.927616
v  25.368111 14.853564 22.582222
v  36.862019 9.930644 18.156898
v  39.410492 9.9447851 14.498016
v  39.468765 14.823123 14.410716
v  36.909855 14.818489 18.085234
v  -15.955605 9.612402 -15.800928
v  -15.955605 14.530859 -15.800929
v  31.057289 9.9061651 20.645924
v  36.204079 9.8984194 18.676746
v  36.227692 14.805507 18.641376
v  31.002514 14.8755 20.727982
v  0.73442364 9.9540653 30.2197
v  0.73442459 14.885363 30.2197
v  -19.220146 9.6283817 -14.249202
v  -21.772919 9.651103 -11.723265
v  -21.772919 14.57132 -11.723266
v  -19.220146 14.547653 -14.249203
v  -3.9175949 9.9480286 31.19099
v  -3.9175949 14.879227 31.19099
v  3.2017183 9.7457638 -24.343769
v  3.2017193 14.662169 -24.343769
v  -22.957355 9.6840906 -7.4312477
v  -22.957355 14.605522 -7.4312487
v  -0.13428211 9.6968288 -23.001131
v  -4.0198936 9.6480894 -22.286833
v  -4.0198936 14.564847 -22.286833
v  -0.13428116 14.613312 -23.001131
v  -19.647659 9.8804712 13.840355
v  -16.766487 9.9189444 19.629166
v  -16.766487 14.848562 19.629166
v  -19.647659 14.80796 13.840354
v  -24.066685 9.7441826 -0.98477268
v  -22.505165 9.8092041 5.8967314
v  -22.505165 14.73438 5.8967304
v  -24.066685 14.667465 -0.98477358
v  -19.482601 9.8554058 10.830206
v  -19.482601 14.78199 10.830205
v  8.1273489 13.962141 -20.201382
v  4.4293423 13.896757 -19.555164
v  1.6446428 13.851761 -18.434408
v  -1.5989561 13.803251 -17.838131
v  -4.1073036 13.77328 -16.84911
v  -8.0135231 13.740849 -15.565567
v  -11.558525 13.741545 -12.425672
v  -14.283236 13.751276 -11.13054
v  -16.407467 13.770954 -9.0286379
v  -17.392466 13.805202 -5.4593239
v  -18.308765 13.863485 -0.13457087
v  -17.139231 13.920802 5.0194712
v  -14.468359 13.970352 9.3789167
v  -14.612049 13.997927 11.999332
v  -12.532431 14.039194 16.177664
v  -8.9056454 14.075253 21.338449
v  -5.9851551 14.084494 23.794292
v  -1.9035835 14.090242 25.717941
v  1.9759798 14.092859 24.907932
v  6.8868046 14.092798 25.229343
v  10.504505 14.090677 24.007738
v  13.171323 14.0921 22.486074
v  16.146854 14.083482 21.231766
v  19.093946 14.095388 19.849808
v  22.536091 14.087064 18.533131
v  25.036022 14.081135 17.986784
v  27.238041 14.11265 16.985836
v  31.598125 14.06402 15.244695
v  32.163895 14.076406 14.783442
v  34.290806 14.087124 11.72926
v  34.332386 14.065403 10.722449
v  33.159294 14.108907 7.5764456
v  31.30192 14.159307 3.1233842
v  29.764423 14.055495 -1.6021993
v  28.21883 14.113382 -5.7390842
v  26.320538 14.192791 -9.9487143
v  24.55191 14.209496 -14.356833
v  22.830822 14.190886 -18.751661
v  21.659731 14.158163 -21.810518
v  21.117626 14.12772 -22.871321
v  20.024347 14.122858 -23.35174
v  13.726217 14.050573 -22.603546
v  10.883265 14.004646 -21.82955
v  35.849686 9.9097052 3.2476568
v  35.730331 14.923195 3.4264569
v  33.724281 10.035218 -1.869956
v  33.914429 14.804228 -2.1548142
v  31.790792 10.111632 -7.0505195
v  31.979635 14.879045 -7.3334255
v  29.756643 10.00937 -12.52939
v  29.684978 14.98027 -12.422029
v  27.68815 10.023888 -17.732258
v  27.604614 15.004009 -17.607113
v  25.547684 10.071486 -22.827303
v  25.555641 14.980317 -22.839218
v  24.084885 14.936106 -26.680786
v  24.063974 10.036463 -26.649464

# 0 UV coordinates

# 169 vertex normals
vn -8.3616877 -0.15828268 -24.44618
vn -8.635828 -0.073909998 -24.53857
vn -8.6359339 -0.073875532 -24.538591
vn 6.9188232 3.3704332e-06 23.192358
vn 8.061204 3.4251475e-06 24.275557
vn 8.0612955 3.425147e-06 24.275616
vn 6.9198427 3.3705232e-06 23.193552
vn -9.0511923 -0.00072735688 -24.506329
vn -9.023941 -0.0021968337 -24.517118
vn -9.0243092 -0.002200701 -24.516983
vn -9.0507736 -0.00071311393 -24.506504
vn 9.0835876 -0.0030607847 24.491461
vn 9.0615673 -0.023982372 24.501804
vn 9.0614872 -0.023859695 24.501837
vn 9.0835896 -0.0030606634 24.491459
vn 9.0632696 0.00022070305 24.501051
vn 9.0632668 0.00022069369 24.501053
vn 3.3594949 -0.53068137 -2.3939891
vn 2.8103158 1.0195678 -3.8312473
vn 2.8041587 1.0365994 -3.846925
vn -9.0202703 -3.3493011e-06 -24.518457
vn -9.1216087 -3.3279239e-06 -24.470989
vn -9.1215897 -3.3279277e-06 -24.470999
vn -9.0202894 -3.3492972e-06 -24.51845
vn 9.050952 -0.029323112 24.506413
vn 9.0517006 -0.029730359 24.506094
vn -8.9282246 0.0062586805 -24.543772
vn -8.9283342 0.0062482413 -24.543753
vn 8.8838758 3.3723015e-06 24.550756
vn 8.883873 3.3723018e-06 24.550755
vn 8.9869184 0.024162164 24.529413
vn 9.0072594 -0.017812151 24.522984
vn 9.009223 -0.020426286 24.52232
vn 8.9861202 0.024936063 24.529648
vn 9.2844133 0.063547499 24.338829
vn 9.6107702 -0.16075654 23.668957
vn 9.6370001 -0.18608235 23.562727
vn 9.2945604 0.057646185 24.327763
vn -9.154892 -3.3199483e-06 -24.450176
vn -9.1548424 -3.3199608e-06 -24.450211
vn 9.052166 -0.094359241 24.505728
vn 9.1191301 0.008886233 24.472427
vn 9.1242218 0.014766838 24.469452
vn 9.0545979 -0.095701925 24.504681
vn 8.8460932 3.3776826e-06 24.554283
vn 8.8460817 3.3776839e-06 24.554283
vn -9.1715441 -3.3157603e-06 -24.438683
vn -9.455781 -3.2160635e-06 -24.088072
vn -9.4561119 -3.2159051e-06 -24.087433
vn -9.1716499 -3.3157335e-06 -24.438608
vn 8.659833 3.399e-06 24.543159
vn 8.6598949 3.3989947e-06 24.543173
vn -8.9800463 -0.00055393775 -24.531422
vn -8.9798679 -0.00055553403 -24.531473
vn -9.6448021 -3.0903454e-06 -23.529734
vn -9.6449137 -3.0902374e-06 -23.529219
vn -8.9825506 -3.3562674e-06 -24.530703
vn -8.9806175 -3.3566114e-06 -24.531258
vn -8.9805002 -3.3566319e-06 -24.53129
vn -8.9827013 -3.3562408e-06 -24.530661
vn 2.2297456 2.5388974e-06 15.424519
vn 4.1903696 2.967676e-06 19.116249
vn 4.1981792 2.9691887e-06 19.129887
vn -8.7038116 -1.6274371e-06 -14.878014
vn -9.6797256 -3.0532456e-06 -23.350655
vn 4.9007664 3.098093e-06 20.317375
vn -9.7538376 -2.9174494e-06 -22.658323
vn 0.64995331 26.054857 1.7991441
vn 0.66395181 26.052717 1.8256913
vn 0.66630995 26.052011 1.834712
vn 0.67153805 26.050323 1.856107
vn 0.66373956 26.053642 1.8130599
vn 0.6803481 26.050306 1.8544694
vn 0.59741259 26.07011 1.5825971
vn 0.68505532 26.050823 1.8451602
vn 0.54810703 26.079866 1.4292001
vn 0.33661246 26.109276 0.8135277
vn 0.28080225 26.114288 0.62782311
vn -0.061665896 26.118286 -0.3734256
vn -0.011763301 26.122835 -0.16611826
vn 0.20428255 26.117807 0.34580517
vn -0.16267046 26.11624 -0.58167028
vn -0.30173275 26.105419 -0.93361944
vn -0.42696401 26.091137 -1.2463548
vn -0.72484815 26.038809 -1.993167
vn -0.62008893 26.060125 -1.7307127
vn -0.72833019 26.03933 -1.9857024
vn -0.77681994 26.029945 -2.0871618
vn -0.75685155 26.03397 -2.0443552
vn -0.75047696 26.035583 -2.0260494
vn -0.74766529 26.036285 -2.0180559
vn -0.74852586 26.034983 -2.0346637
vn -0.76076216 26.030964 -2.0807855
vn -0.69892257 26.048107 -1.8777632
vn -0.73579854 26.038271 -1.9968456
vn -0.56925476 26.076006 -1.4908403
vn -0.52312875 26.084759 -1.3418744
vn -0.29595551 26.112858 -0.62450218
vn 0.00018614909 26.121035 0.18823873
vn -0.10205503 26.121979 -0.11008594
vn -0.11513026 26.121483 -0.13584371
vn 0.039126072 26.119997 0.29469016
vn 0.0033568444 26.121643 0.18069606
vn -0.060416747 26.122032 0.012390346
vn -0.099627182 26.121611 -0.08979062
vn -0.1066056 26.120461 -0.077911779
vn 0.31459928 26.102638 0.99064267
vn 0.57520127 26.068897 1.6097043
vn 0.62574971 26.060211 1.7291999
vn 0.71662593 26.043087 1.9401752
vn 2.9861403 0.41456115 -3.3804772
vn 2.9820976 0.42654014 -3.3909671
vn 3.4891083 -5.5996408 -1.7842275
vn 3.4756279 -5.7906804 -1.8018345
vn 2.4122894 -6.2712603 -4.5399032
vn 2.4130952 -6.2743649 -4.5375233
vn 1.8273271 0.46833852 -6.3268576
vn 1.8320289 0.5299263 -6.3147407
vn 1.918848 2.9004602 -6.0346112
vn 1.9156641 2.8804665 -6.043448
vn 2.2971966 0.58298558 -5.150877
vn 2.2941618 0.59052795 -5.1584802
vn -2.7153697 -0.99329704 -16.37775
vn 2.8215621 -0.73813009 -3.8061128
vn 9.7510719 -0.35622323 22.6889
vn 0.037886441 -26.124884 0.097390018
vn 1.3369131 25.828259 3.6901772
vn 1.3775793 25.81197 3.788707
vn -1.4393359 25.791719 -3.9033008
vn -1.4651917 25.772333 -4.0191083
vn 1.3697438 25.818575 3.7472885
vn 1.3933861 25.809109 3.8035688
vn -1.4877286 25.773388 -4.0040646
vn -1.4447573 25.790539 -3.9089649
vn 1.2456013 25.884758 3.3039222
vn -1.1962442 25.8818 -3.343405
vn -1.4223148 25.798685 -3.8633413
vn 1.3952138 25.816301 3.7530398
vn -1.3811473 25.810472 -3.797662
vn 1.1586454 25.920347 3.0427287
vn 0.75548619 26.044415 1.8558818
vn -0.84832948 25.992262 -2.4647834
vn 0.62784612 26.070568 1.4879299
vn -0.58718848 26.052256 -1.8010401
vn 0.058628105 26.11812 -0.10494518
vn -0.16447726 26.108532 -0.70677602
vn 0.23236373 26.114943 0.37147158
vn -0.32891586 26.09269 -1.1357745
vn -1.3516346 25.834513 -3.6423969
vn -1.4182445 25.799389 -3.8601069
vn 1.3193091 25.838846 3.6230488
vn 1.4520782 25.786348 3.9339075
vn 0.81445283 26.002203 2.3702939
vn 1.2077686 25.880333 3.3532503
vn -0.01275706 26.116194 -0.30667478
vn 0.17574632 26.116552 0.20445457
vn 0.03490812 26.110281 0.43576336
vn -0.13278787 26.114359 -0.031880692
vn -0.15310299 26.114649 -0.096037254
vn 0.085295573 26.108618 0.5599463
vn 0.089961872 26.107862 0.57802725
vn -0.06669005 26.113058 0.16408817
vn -0.14991824 26.112555 -0.052840296
vn -0.15700686 26.112497 -0.072559908
vn 0.0045223264 26.112947 0.33507279
vn -1.1071719 25.937298 -2.9171429
vn -0.98175687 25.981256 -2.5394797
vn -0.70501572 26.055103 -1.7233503
vn -0.16683024 26.115404 -0.15188409

# Mesh 'Plane.005' with 88 faces
g Plane.005
usemtl Material.002
f  1//1 2//2 3//3 4//1
f  5//4 6//5 7//6 8//7
f  9//8 10//9 11//10 12//11
f  13//12 14//13 15//14 16//15
f  17//16 13//12 16//15 18//17
f  19//18 20//19 21//20 22//18
f  23//21 24//22 25//23 26//24
f  14//13 27//25 28//26 15//14
f  2//2 29//27 30//28 3//3
f  31//29 17//16 18//17 32//30
f  33//31 34//32 35//33 36//34
f  37//35 38//36 39//37 40//38
f  24//22 41//39 42//40 25//23
f  43//41 44//42 45//43 46//44
f  47//45 31//29 32//30 48//46
f  49//47 50//48 51//49 52//50
f  29//27 9//8 12//11 30//28
f  53//51 47//45 48//46 54//52
f  10//9 55//53 56//54 11//10
f  50//48 57//55 58//56 51//49
f  59//57 60//58 61//59 62//60
f  6//5 53//51 54//52 7//6
f  41//39 49//47 52//50 42//40
f  63//61 64//62 65//63 66//61
f  67//64 68//64 69//64 70//64
f  57//55 67//65 70//65 58//56
f  55//53 59//57 62//60 56//54
f  68//66 71//66 72//66 69//66
f  64//62 5//4 8//7 65//63
f  27//25 33//31 36//34 28//26
f  71//67 63//67 66//67 72//67
f  34//32 43//41 46//44 35//33
f  60//58 23//21 26//24 61//59
f  73//68 74//69 75//70 76//71 77//72 78//73 79//74 80//75 81//76 82//77 83//78 84//79 85//80 86//81 87//82 88//83 89//84 90//85 91//86 92//87 93//88 94//89 95//90 96//91 97//92 98//93 99//94 100//95 101//96 102//97 103//98 104//99 105//100 106//101 107//102 108//103 109//104 110//105 111//106 112//107 113//108 114//109 115//110
f  20//19 116//111 117//112 21//20
f  116//111 118//113 119//114 117//112
f  118//113 120//115 121//116 119//114
f  120//115 122//117 123//118 121//116
f  122//117 124//119 125//120 123//118
f  124//119 126//121 127//122 125//120
f  1//123 4//123 128//123 129//123
f  126//121 129//124 128//124 127//122
f  37//35 40//38 45//43 44//42
f  39//37 38//36 19//125 22//125
f  10//126 9//126 29//126 2//126 1//126 129//126 126//126 124//126 122//126 120//126 118//126 116//126 20//126 19//126 38//126 37//126 44//126 43//126 34//126 33//126 27//126 14//126 13//126 17//126 31//126 47//126 53//126 6//126 5//126 64//126 63//126 71//126 68//126 67//126 57//126 50//126 49//126 41//126 24//126 23//126 60//126 59//126 55//126
f  75//70 74//69 56//127 62//128
f  97//92 96//91 28//129 36//130
f  77//72 76//71 61//131 26//132
f  95//90 94//89 16//133 15//134
f  78//73 77//72 26//132 25//135
f  93//88 92//87 32//136 18//137
f  79//74 78//73 25//135 42//138
f  92//87 91//86 48//139 32//136
f  81//76 80//75 52//140 51//141
f  91//86 90//85 54//142 48//139
f  82//77 81//76 51//141 58//143
f  90//85 89//84 7//144 54//142
f  87//82 86//81 66//145 65//146
f  83//78 82//77 58//143 70//147
f  88//83 87//82 65//146 8//148
f  99//94 98//93 35//149 46//150
f  73//68 115//110 12//151 11//152
f  114//109 113//108 3//153 30//154
f  115//110 114//109 30//154 12//151
f  74//69 73//68 11//152 56//127
f  76//71 75//70 62//128 61//131
f  80//75 79//74 42//138 52//140
f  84//79 83//78 70//147 69//155
f  85//80 84//79 69//155 72//156
f  86//81 85//80 72//156 66//145
f  89//84 88//83 8//148 7//144
f  94//89 93//88 18//137 16//133
f  96//91 95//90 15//134 28//129
f  98//93 97//92 36//130 35//149
f  105//100 104//99 21//157 117//158
f  106//101 105//100 117//158 119//159
f  107//102 106//101 119//159 121//160
f  108//103 107//102 121//160 123//161
f  109//104 108//103 123//161 125//162
f  110//105 109//104 125//162 127//163
f  112//107 111//106 128//164 4//165
f  111//106 110//105 127//163 128//164
f  113//108 112//107 4//165 3//153
f  101//96 100//95 45//166 40//167
f  103//98 102//97 39//168 22//169
f  102//97 101//96 40//167 39//168
f  100//95 99//94 46//150 45//166
f  104//99 103//98 22//169 21//157

