# File produced by Open Asset Import Library (http://www.assimp.sf.net)
# (assimp v5.0.1588609223)

mtllib result.mtl

# 368 vertex positions
v  0.5572052 -64.955765 3.9615021
v  0.5572052 60.661095 3.9615021
v  -1.2445984 60.661095 3.9615021
v  -1.2445984 -64.955765 3.9615021
v  -1.2445984 60.661095 1.2119598
v  -1.2445984 -64.955765 1.2119598
v  0.5572052 60.661095 1.2119598
v  0.5572052 -64.955765 1.2119598
v  -23.815289 30.661972 3.5066071
v  23.127892 30.661972 3.5066071
v  23.127892 31.867577 3.5066071
v  -23.815289 31.867577 3.5066071
v  23.127892 31.867577 1.6668549
v  -23.815289 31.867577 1.6668549
v  23.127892 30.661972 1.6668549
v  -23.815289 30.661972 1.6668549
v  -23.815289 0.69781494 3.5760803
v  23.127892 0.69781494 3.5760803
v  23.127892 1.9944687 3.5760803
v  -23.815289 1.9944687 3.5760803
v  23.127892 1.9944687 1.5973969
v  -23.815289 1.9944687 1.5973969
v  23.127892 0.69781494 1.5973969
v  -23.815289 0.69781494 1.5973969
v  -23.815289 -27.912048 3.4215012
v  23.127892 -27.912048 3.4215012
v  23.127892 -26.817978 3.4215012
v  -23.815289 -26.817978 3.4215012
v  23.127892 -26.817978 1.7519531
v  -23.815289 -26.817978 1.7519531
v  23.127892 -27.912048 1.7519531
v  -23.815289 -27.912048 1.7519531
v  26.126038 55.783012 5.7552948
v  26.126038 54.772362 5.7552948
v  26.581612 54.0877 5.5170441
v  26.581612 55.085686 5.5170441
v  25.770332 65.005608 5.5170441
v  26.126038 64.693382 5.7552948
v  26.581612 63.884682 5.5170441
v  26.581612 65.005608 5.5170441
v  -22.614319 55.783134 5.7554474
v  -22.614319 54.565681 5.7554474
v  -21.21257 54.565681 5.5686798
v  -20.892525 55.242027 5.5686798
v  -22.306419 65.00576 5.5171051
v  -22.614319 64.693535 5.7554474
v  -21.21257 64.693504 5.7554474
v  -20.923752 65.00576 5.5171051
v  19.358856 65.005653 5.5171051
v  19.626068 64.693382 5.7554169
v  20.430611 64.693382 5.7554169
v  20.152451 65.005653 5.5171051
v  -20.892525 -55.770035 5.5686798
v  -22.614319 -56.311142 5.7554474
v  -22.614319 -57.665936 5.7554474
v  -21.21257 -57.665939 5.7554474
v  20.110588 -55.770073 5.5686798
v  19.274353 -56.311184 5.5686798
v  19.274353 -57.665977 5.7554474
v  20.430626 -57.665985 5.7554474
v  26.581619 -55.607292 5.5170441
v  26.126076 -56.311188 5.7552948
v  26.126076 -57.665989 5.7552948
v  26.581619 -56.945152 5.5170441
v  20.110565 55.241905 4.8693085
v  19.626068 55.783012 4.8693085
v  19.626068 55.783012 -1.5258789e-05
v  20.110565 55.241905 -1.5258789e-05
v  -20.892525 55.242027 4.869339
v  -21.21257 54.565681 4.869339
v  -21.21257 54.565681 -1.5258789e-05
v  -20.892525 55.242027 -1.5258789e-05
v  20.430611 54.772362 -1.5258789e-05
v  20.430611 54.772362 4.8693085
v  19.274353 -56.311184 -1.5258789e-05
v  19.274353 -56.311184 4.869339
v  20.110588 -55.770073 4.869339
v  20.110588 -55.770073 -1.5258789e-05
v  26.948524 55.783012 5.2648773
v  26.948524 54.772362 5.2648773
v  26.948524 54.772362 -1.5258789e-05
v  26.948524 55.783012 -1.5258789e-05
v  26.948524 65.828514 5.2648773
v  26.948524 64.693382 5.2648773
v  26.948524 64.693382 -1.5258789e-05
v  26.948524 65.828514 -1.5258789e-05
v  26.126038 65.828514 -1.5258789e-05
v  26.126038 65.828514 5.2648773
v  -26.948532 54.565697 -1.5258789e-05
v  -26.948532 54.565697 5.2649994
v  -26.948532 55.78318 5.2649994
v  -26.948532 55.78318 -1.5258789e-05
v  -26.948532 64.693565 -1.5258789e-05
v  -26.948532 64.693565 5.2649994
v  -26.948532 65.828697 5.2649994
v  -26.948532 65.828697 -1.5258789e-05
v  -22.614319 65.828636 -1.5258789e-05
v  -22.614319 65.828636 5.2649994
v  -21.21257 65.828636 5.2649994
v  -21.21257 65.828636 -1.5258789e-05
v  19.626068 65.828529 -1.5258789e-05
v  19.626068 65.828529 5.2649689
v  20.430611 65.828529 5.2649994
v  20.430611 65.828529 -1.5258789e-05
v  -26.948524 -57.665928 -1.5258789e-05
v  -26.948524 -57.665928 5.2649994
v  -26.948524 -56.311127 5.2649994
v  -26.948524 -56.311127 -1.5258789e-05
v  -21.21257 -65.828651 5.2649994
v  -22.614319 -65.828644 5.2649994
v  -22.614319 -65.828644 -1.5258789e-05
v  -21.21257 -65.828644 -1.5258789e-05
v  20.430618 -65.828682 5.2649994
v  19.274353 -65.828682 5.2649994
v  19.274345 -65.828682 -1.5258789e-05
v  20.430618 -65.828682 -1.5258789e-05
v  26.948532 -65.82869 5.2648773
v  26.126076 -65.82869 5.2648773
v  26.126076 -65.82869 -1.5258789e-05
v  26.948532 -65.82869 -1.5258789e-05
v  26.948532 -56.311195 5.2648773
v  26.948532 -57.665989 5.2648773
v  26.948532 -57.665989 -1.5258789e-05
v  26.948532 -56.311195 -1.5258789e-05
v  -26.948532 56.839409 -1.5258789e-05
v  -26.948532 56.839409 5.2649994
v  -22.614319 56.839363 5.7554474
v  -21.21257 56.839363 5.7554474
v  19.626068 56.839241 5.7554169
v  20.430611 56.839241 5.7554169
v  26.126038 56.839195 5.7552948
v  26.581612 56.1287 5.5170135
v  26.948524 56.839195 5.2648773
v  26.948524 56.839195 -1.5258789e-05
v  -26.948524 -65.828629 5.2649994
v  -26.948524 -64.693329 5.2649994
v  -26.948524 -64.693329 -1.5258789e-05
v  -26.948524 -65.828629 -1.5258789e-05
v  -21.21257 -64.693344 5.7554474
v  -22.614319 -64.693344 5.7554474
v  -22.306419 -65.005768 5.5171051
v  -20.923752 -65.005768 5.5171051
v  20.430618 -64.693382 5.7554474
v  19.274345 -64.693375 5.7554474
v  19.01194 -65.005798 5.5171051
v  20.152458 -65.005798 5.5171051
v  26.581619 -63.884705 5.5170441
v  26.126076 -64.69339 5.7552948
v  25.770348 -65.005814 5.5170441
v  26.581619 -65.005821 5.5170441
v  26.948532 -64.69339 -1.5258789e-05
v  26.948532 -64.69339 5.2648773
v  19.626068 55.783012 5.5685883
v  20.110565 55.241905 5.5685883
v  20.430626 -55.258404 -1.5258789e-05
v  20.430626 -55.258404 4.869339
v  26.126076 -55.258408 5.7552948
v  26.581619 -54.567657 5.5170441
v  26.948532 -55.258408 5.2648773
v  26.948532 -55.258408 -1.5258789e-05
v  -26.948524 -54.804283 -1.5258789e-05
v  -26.948524 -54.804283 5.2649994
v  -22.614319 -54.804283 5.7554474
v  -21.21257 -54.804283 5.5686798
v  -21.21257 -54.804283 4.869339
v  -21.21257 -54.804283 -1.5258789e-05
v  -20.892525 -55.770035 4.869339
v  -20.892525 -55.770035 -1.5258789e-05
v  -20.129601 65.828636 -1.5258789e-05
v  -20.129601 65.828636 5.2649994
v  -19.855537 65.00576 5.5171051
v  -20.129601 64.693504 5.7554474
v  -20.129601 56.839348 5.7554474
v  -20.129601 55.783134 5.5686798
v  -20.129601 55.783134 4.869339
v  -20.129601 55.783134 -1.5258789e-05
v  -26.220406 65.828667 -1.5258789e-05
v  -26.220406 65.828667 5.2649994
v  -25.863403 65.005791 5.5171051
v  -26.220406 64.693565 5.7554474
v  -26.220406 56.839378 5.7554474
v  -26.220406 55.78318 5.7554474
v  -26.220406 54.565697 5.7554474
v  -26.220398 -54.804283 5.7554474
v  -26.220398 -56.311127 5.7554474
v  -26.220398 -57.665928 5.7554474
v  -26.220398 -64.693329 5.7554474
v  -25.863403 -65.005753 5.5171051
v  -26.220398 -65.828644 5.2649994
v  -26.220398 -65.828644 -1.5258789e-05
v  -20.330811 -56.311146 4.869339
v  -20.330811 -56.311146 -1.5258789e-05
v  -20.330811 -57.665939 5.7554474
v  -20.330811 -56.311146 5.5686798
v  -20.330811 -64.693344 5.7554474
v  -20.054008 -65.005768 5.5171051
v  -20.330811 -65.828644 -1.5258789e-05
v  -20.330811 -65.828651 5.2649994
v  21.241486 65.828514 5.2649384
v  21.241486 65.828514 -1.5258789e-05
v  21.241486 64.693382 5.7553558
v  20.952278 65.005653 5.5170441
v  21.241486 56.839195 5.7553558
v  21.241486 55.783012 5.7553558
v  20.430611 54.772362 5.5685883
v  21.241486 54.772362 5.7553558
v  21.241501 -55.258404 5.7554169
v  20.430626 -55.258404 5.5686798
v  21.241501 -56.311184 5.7554169
v  21.241501 -57.665985 5.7554169
v  21.241493 -64.693382 5.7554169
v  20.952286 -65.005798 5.5171051
v  21.241493 -65.828682 -1.5258789e-05
v  21.241493 -65.828682 5.2649994
v  -26.581627 65.005791 5.5171051
v  -26.581627 63.88485 5.5171051
v  -26.581627 56.128883 5.5171051
v  -26.581627 55.085838 5.5171051
v  -26.581627 53.883629 5.5171051
v  -26.581619 -54.119205 5.5171051
v  -26.581619 -55.607224 5.5171051
v  -26.581619 -56.945084 5.5171051
v  -26.581619 -63.884647 5.5171051
v  -26.581619 -65.005753 5.5171051
v  26.126038 55.783012 -5.7553253
v  26.581612 55.085686 -5.5170441
v  26.581612 54.0877 -5.5170441
v  26.126038 54.772362 -5.7553253
v  25.770332 65.005608 -5.5170441
v  26.581612 65.005608 -5.5170441
v  26.581612 63.884682 -5.5170441
v  26.126038 64.693382 -5.7553253
v  -22.614319 55.783134 -5.7554474
v  -20.892525 55.242027 -5.5686798
v  -21.21257 54.565681 -5.5686798
v  -22.614319 54.565681 -5.7554474
v  -22.306419 65.00576 -5.5171356
v  -20.923752 65.00576 -5.5171356
v  -21.21257 64.693504 -5.7554474
v  -22.614319 64.693535 -5.7554474
v  19.358856 65.005653 -5.5171051
v  20.152451 65.005653 -5.5171051
v  20.430611 64.693382 -5.7554169
v  19.626068 64.693382 -5.7554169
v  -20.892525 -55.770035 -5.5686798
v  -21.21257 -57.665939 -5.7554474
v  -22.614319 -57.665936 -5.7554474
v  -22.614319 -56.311142 -5.7554474
v  20.110588 -55.770073 -5.5686798
v  20.430626 -57.665985 -5.7554474
v  19.274353 -57.665977 -5.7554474
v  19.274353 -56.311184 -5.5686798
v  26.581619 -55.607292 -5.5170441
v  26.581619 -56.945152 -5.5170441
v  26.126076 -57.665989 -5.7553253
v  26.126076 -56.311188 -5.7553253
v  20.110565 55.241905 -4.869339
v  19.626068 55.783012 -4.869339
v  -20.892525 55.242027 -4.8693695
v  -21.21257 54.565681 -4.8693695
v  20.430611 54.772362 -4.869339
v  20.110588 -55.770073 -4.8693695
v  19.274353 -56.311184 -4.8693695
v  26.948524 55.783012 -5.2649384
v  26.948524 54.772362 -5.2649384
v  26.948524 65.828514 -5.2649384
v  26.948524 64.693382 -5.2649384
v  26.126038 65.828514 -5.2649384
v  -26.948532 55.78318 -5.2650299
v  -26.948532 54.565697 -5.2649994
v  -26.948532 65.828697 -5.2650299
v  -26.948532 64.693565 -5.2649994
v  -21.21257 65.828636 -5.2650299
v  -22.614319 65.828636 -5.2649994
v  20.430611 65.828529 -5.2649994
v  19.626068 65.828529 -5.2649994
v  -26.948524 -56.311127 -5.2650299
v  -26.948524 -57.665928 -5.2649994
v  -21.21257 -65.828651 -5.2650299
v  -22.614319 -65.828644 -5.2650299
v  20.430618 -65.828682 -5.2650299
v  19.274353 -65.828682 -5.2650299
v  26.948532 -65.82869 -5.2649384
v  26.126076 -65.82869 -5.2649384
v  26.948532 -56.311195 -5.2649384
v  26.948532 -57.665989 -5.2649384
v  -26.948532 56.839409 -5.2649994
v  -21.21257 56.839363 -5.7554474
v  -22.614319 56.839363 -5.7554474
v  20.430611 56.839241 -5.7554169
v  19.626068 56.839241 -5.7554169
v  26.581612 56.1287 -5.5170135
v  26.126038 56.839195 -5.7553253
v  26.948524 56.839195 -5.2649078
v  -26.948524 -65.828629 -5.2650299
v  -26.948524 -64.693329 -5.2649994
v  -21.21257 -64.693344 -5.7554474
v  -20.923752 -65.005768 -5.5171356
v  -22.306419 -65.005768 -5.5171356
v  -22.614319 -64.693344 -5.7554474
v  20.430618 -64.693382 -5.7554474
v  20.152458 -65.005798 -5.5171356
v  19.01194 -65.005798 -5.5171356
v  19.274345 -64.693375 -5.7554474
v  26.581619 -63.884705 -5.5170441
v  26.581619 -65.005821 -5.5170441
v  25.770348 -65.005814 -5.5170441
v  26.126076 -64.69339 -5.7553253
v  26.948532 -64.69339 -5.2649384
v  20.110565 55.241905 -5.5686493
v  19.626068 55.783012 -5.5686493
v  20.430626 -55.258404 -4.8693695
v  26.581619 -54.567657 -5.5170441
v  26.126076 -55.258408 -5.7553253
v  26.948532 -55.258408 -5.2649384
v  -26.948524 -54.804283 -5.2649994
v  -21.21257 -54.804283 -5.5686798
v  -22.614319 -54.804283 -5.7554474
v  -21.21257 -54.804283 -4.8693695
v  -20.892525 -55.770035 -4.8693695
v  -20.129601 65.828636 -5.2649994
v  -19.855537 65.00576 -5.5171356
v  -20.129601 64.693504 -5.7554474
v  -20.129601 56.839348 -5.7554474
v  -20.129601 55.783134 -5.5686798
v  -20.129601 55.783134 -4.8693695
v  -26.220406 65.828667 -5.2649994
v  -25.863403 65.005791 -5.5171356
v  -26.220406 64.693565 -5.7554474
v  -26.220406 56.839378 -5.7554474
v  -26.220406 55.78318 -5.7554474
v  -26.220406 54.565697 -5.7554474
v  -26.220398 -54.804283 -5.7554474
v  -26.220398 -56.311127 -5.7554474
v  -26.220398 -57.665928 -5.7554474
v  -26.220398 -64.693329 -5.7554474
v  -25.863403 -65.005753 -5.5171356
v  -26.220398 -65.828644 -5.2650299
v  -20.330811 -56.311146 -4.8693695
v  -20.330811 -57.665939 -5.7554474
v  -20.330811 -56.311146 -5.5686798
v  -20.330811 -64.693344 -5.7554474
v  -20.054008 -65.005768 -5.5171356
v  -20.330811 -65.828651 -5.2650299
v  21.241486 65.828514 -5.2649384
v  20.952278 65.005653 -5.5170746
v  21.241486 64.693382 -5.7553864
v  21.241486 56.839195 -5.7553864
v  21.241486 55.783012 -5.7553864
v  21.241486 54.772362 -5.7553864
v  20.430611 54.772362 -5.5686493
v  21.241501 -55.258404 -5.7554169
v  20.430626 -55.258404 -5.5686798
v  21.241501 -56.311184 -5.7554169
v  21.241501 -57.665985 -5.7554169
v  21.241493 -64.693382 -5.7554169
v  20.952286 -65.005798 -5.5171051
v  21.241493 -65.828682 -5.2649994
v  -26.581627 65.005791 -5.5171356
v  -26.581627 63.88485 -5.5171356
v  -26.581627 56.128883 -5.5171356
v  -26.581627 55.085838 -5.5171356
v  -26.581627 53.883629 -5.5171356
v  -26.581619 -54.119205 -5.5171356
v  -26.581619 -55.607224 -5.5171356
v  -26.581619 -56.945084 -5.5171356
v  -26.581619 -63.884647 -5.5171356
v  -26.581619 -65.005753 -5.5171356

# 0 UV coordinates

# 523 vertex normals
vn 0 0 1
vn -1 0 0
vn 0 0 -1
vn 1 0 0
vn 0 1 0
vn 0 -1 0
vn 0 0 0.99999994
vn 0 0 -0.99999994
vn 0.044862576 1.0477088e-06 0.99899322
vn 0.019643907 2.6828403e-07 0.99980706
vn 0.46343344 9.3088879e-08 0.88613164
vn 0.4634307 2.8173263e-06 0.88613319
vn 0.023720644 0.58438843 0.81112731
vn 0.021220947 0.018497521 0.99960363
vn 0.46064556 0.0051802276 0.88756907
vn 0.32096222 0.23229913 0.91816139
vn 0.02197147 -0.015209396 0.99964285
vn 0.037190422 -5.3947781e-05 0.99930817
vn 0.13186356 -0.00024401133 0.99126786
vn 0.071495123 -0.065348573 0.99529797
vn 5.8235182e-06 0.60676545 0.79488093
vn 3.0173084e-07 0.034134518 0.99941725
vn 2.5093138e-07 0.030421708 0.99953711
vn 2.3203286e-06 0.606745 0.79489654
vn 2.0539571e-06 0.6067031 0.79492855
vn 7.9859717e-07 0.018660204 0.99982584
vn 3.8457762e-05 0.029022597 0.99957877
vn 1.8421179e-05 0.60667622 0.79494894
vn 0.077964038 0.045768958 0.99590498
vn 0.022646429 0.012103027 0.99967027
vn 0.0029716662 0.0030747298 0.99999088
vn 0.0093029197 0.013333036 0.99986786
vn -0.085329644 0.072321847 0.99372447
vn -0.0012190192 0.1355442 0.99077058
vn -0.0001478042 0.022182288 0.99975395
vn -0.010865322 0.014702821 0.99983287
vn 0.4634459 0 0.88612527
vn 0.047357947 0 0.99887794
vn 0.060351279 -1.0040601e-11 0.99817723
vn 0.46344608 0 0.88612515
vn -0.74500322 -0.66706085 0
vn -0.013448644 -0.99990958 0
vn -0.013448717 -0.99990946 0
vn -0.7450034 -0.66706073 0
vn 0.90390754 -0.42772803 0
vn 0.99999583 -0.0029082731 0
vn 0.99999577 -0.0029082741 0
vn 0.90390748 -0.42772818 0
vn -0.99999577 -0.0028964477 0
vn -0.99999583 -0.002896433 0
vn -0.8263067 -0.56322044 0
vn -0.82630652 -0.5632208 0
vn -0.013377987 0.99991047 0
vn -0.013377987 0.99991053 0
vn -0.54326397 0.839562 0
vn -0.54326403 0.83956188 0
vn 0.99969691 0 0.024620246
vn 0.99966848 7.8359413e-08 0.025745358
vn 1 7.83009e-08 0
vn 0.99976808 0 0.021535931
vn 0.99944615 -3.4674883e-08 0.03327629
vn 0.99999994 0 0
vn 0 0.99999994 0
vn 7.3945495e-07 0.99253732 0.12194142
vn 0 0.99384463 0.11078271
vn -1 -7.8620509e-08 0
vn -0.99966252 -7.8374725e-08 0.025975913
vn -0.99969697 0 0.024616886
vn -0.99944627 0 0.033273749
vn -0.9997682 0 0.021533675
vn 6.0939647e-06 1 0
vn 6.0485686e-06 0.98717147 0.1596639
vn 0 0.98468304 0.17435403
vn 2.6334067e-06 1 0
vn 2.5934419e-06 0.99264884 0.12103035
vn -2.2423524e-06 0.99290305 0.11892642
vn -0.99568218 0 0.092827819
vn -0.99449027 0 0.10482965
vn -2.7520459e-06 -0.98468274 0.17435551
vn -8.3720244e-07 -0.98717093 0.15966678
vn -7.6174683e-07 -1 0
vn -2.721385e-06 -0.99999994 0
vn 0 -0.99290347 0.11892333
vn -8.3208784e-07 -0.99253976 0.12192079
vn -8.4227366e-07 -1 -1.1376039e-06
vn -1.5717023e-07 -0.99384511 0.1107783
vn 4.1431355e-07 -0.99253786 0.12193655
vn -1.3368418e-06 -1 0
vn 0 -0.99999994 0
vn 0.99449003 0 0.10483114
vn 0.99568206 0 0.092829026
vn -0.99538392 0 0.095973797
vn 0.0021836071 -0.0028979329 0.99999344
vn 0.0067734951 -0.013011443 0.99989241
vn -0.00013902862 -0.020874163 0.99978203
vn -0.010395985 -0.012811051 0.99986392
vn 0.06217828 -1.7632132e-07 0.99806511
vn 0.46344936 3.5420273e-06 0.88612348
vn 0.99538362 -1.337751e-07 0.095975772
vn -0.99976808 0 0.021534221
vn -0.99940741 0 0.034422457
vn 0 -0.035066653 0.99938494
vn -2.4171763e-07 -0.037942808 0.99927986
vn -1.3322322e-06 -0.60653561 0.79505622
vn 0 -0.60653061 0.7950601
vn 1.552691e-05 -0.03011233 0.99954653
vn -3.1604895e-08 -0.021166638 0.99977601
vn -4.856322e-07 -0.60654354 0.79505026
vn 2.1163896e-06 -0.60652852 0.79506171
vn 0.46032459 -0.0057771429 0.88773191
vn 0.021718746 -0.020595174 0.99955189
vn 0.023728007 -0.58418947 0.81127048
vn 0.32093674 -0.23224024 0.91818523
vn 0.99940729 0 0.034424927
vn 0.99976808 0 0.021537034
vn -0.99450678 0 0.10467258
vn -0.0017492793 -0.17286041 0.98494476
vn -0.10810296 -0.072609045 0.99148458
vn 0.9945066 1.42567e-06 0.10467476
vn -0.99999577 0.0028950323 0
vn -0.99999583 0.0028950435 0
vn 0.019544248 2.682107e-07 0.99980891
vn 0.4634335 9.3081631e-08 0.88613164
vn 0.99967211 7.8327162e-08 0.025608735
vn 1 7.8271199e-08 0
vn -1 -7.8415333e-08 0
vn -0.99965906 -7.8158443e-08 0.02611039
vn 0.037187606 5.380248e-05 0.99930835
vn 0.13183022 0.00022871743 0.99127227
vn 0.99999583 0.0029006449 0
vn 0.99999577 0.0029006461 0
vn -0.84781587 0.53029078 0
vn -0.84781569 0.53029102 0
vn 0.99970138 0 0.024439815
vn -0.99970138 0 0.024437049
vn 0.94923365 0.31457207 0
vn 0.94923353 0.31457213 0
vn 2.6154526e-06 1 0
vn 2.6409084e-06 0.99267989 0.12077569
vn 2.0480095e-06 0.606704 0.79492795
vn 7.9273337e-07 0.018601902 0.99982697
vn 0.0001395649 -0.020870181 0.9997822
vn 0.0015776561 -0.17258361 0.9849937
vn 0.01335045 -0.99991089 0
vn 0.01335038 -0.99991089 0
vn 0 0.99302346 0.11791691
vn 0.57851785 -0.81566972 0
vn 0.57851791 -0.81566966 0
vn 1.4082178e-05 1 0
vn 1.3880071e-05 0.99234015 0.1235352
vn -0.031769916 0.58298343 0.81186259
vn -0.02568423 0.019095883 0.9994877
vn -0.085271403 0 0.9963578
vn -0.057140771 0 0.99836612
vn -0.023678711 -1.6593019e-09 0.99971968
vn -0.023805015 -1.6488095e-09 0.99971664
vn -0.057759009 0 0.99833059
vn -0.082630865 0 0.99658018
vn -0.026337035 -0.021257909 0.99942708
vn -0.031779107 -0.58274949 0.81203026
vn -3.544834e-06 -0.99233985 0.12353784
vn -3.5205514e-06 -1 0
vn 0.69377559 0.7201913 0
vn 0.0134713 0.99990928 0
vn 0.013471299 0.99990916 0
vn 0.69377565 0.72019124 0
vn 0.00014885989 0.022186527 0.99975377
vn 0.0013382637 0.13571063 0.99074763
vn -2.7532334e-08 -0.020526247 0.9997893
vn -4.6301352e-07 -0.6065436 0.79505026
vn -8.4798444e-07 -1 -1.1811082e-06
vn -8.3801928e-07 -0.99274153 0.12026731
vn 0 -0.99302328 0.117919
vn 0 -1 -1.643388e-06
vn 3.1258805e-05 0.98484808 0.1734197
vn 4.9689725e-06 0.9860304 0.16656509
vn 2.6791572e-06 1 0
vn 1.8817696e-05 0.99999994 0
vn 2.1047297e-05 0.036933381 0.99931777
vn 2.2592678e-05 0.60666996 0.79495382
vn -0.0019079748 -0.0014815178 0.99999702
vn -0.018426951 -0.0096829208 0.99978334
vn -0.22391081 -0.00044141625 0.97460949
vn -0.032679427 -4.6907768e-05 0.99946588
vn -0.032678947 4.753816e-05 0.99946582
vn -0.22389853 0.00043464373 0.97461241
vn -0.018645165 0.0082819592 0.9997918
vn -0.0025993267 0.001571864 0.99999535
vn 2.6290238e-05 -0.041035499 0.99915773
vn 1.3999999e-05 -0.606475 0.79510266
vn -1.3395561e-06 -1 0
vn 1.4739426e-06 -0.98603016 0.1665668
vn 0 -0.98484933 0.17341243
vn 4.0942279e-05 0.9938454 0.11077619
vn 4.1912568e-05 1 0
vn -0.37915787 0.24293748 0.8928721
vn -0.54795277 0.0046127876 0.83649659
vn -0.55073905 0 0.83467752
vn -0.55074006 0 0.83467686
vn -0.55073893 -4.0452051e-08 0.83467764
vn -0.55073887 -4.0429153e-08 0.83467758
vn -0.55073982 0 0.83467698
vn -0.55073845 0 0.83467793
vn -0.54762799 -0.0051445947 0.83670622
vn -0.37910613 -0.24286649 0.89291346
vn -2.0559886e-05 -0.99384493 0.1107805
vn -2.0956284e-05 -1 0
vn 0.56639731 0 0.82413238
vn 0.56639755 0 0.82413214
vn 0.56639791 0 0.82413197
vn 0.5663991 0 0.82413107
vn -1.3565165e-06 -0.2929967 0.95611346
vn 1.5640366e-05 -0.29296002 0.95612472
vn 1.3861392e-05 -0.29295084 0.95612752
vn 0 -0.29292911 0.95613414
vn 0 -0.2929295 0.95613402
vn -2.209582e-07 -0.29292855 0.95613438
vn -2.2205471e-07 -0.29292855 0.95613438
vn 0 -0.2929298 0.95613396
vn -1.1939035e-06 -0.29293063 0.95613366
vn -8.3587736e-07 -0.29292849 0.95613432
vn -9.6564906e-07 -0.29292729 0.95613468
vn -3.8306916e-06 -0.29292837 0.95613444
vn -0.56631368 0 0.82418984
vn -0.56631303 0 0.82419026
vn -0.56631321 0 0.8241902
vn -0.56631339 0 0.82418996
vn -0.56631213 0 0.82419086
vn -0.56631345 -3.9299437e-08 0.82418996
vn -0.56631351 -3.932232e-08 0.82418996
vn -0.56631315 0 0.8241902
vn -0.56631356 0 0.82418978
vn -0.56631315 0 0.82419008
vn -0.56631291 0 0.82419038
vn -0.56631124 0 0.82419151
vn 6.1290857e-06 0.2929289 0.95613426
vn 2.8697798e-06 0.29293308 0.95613295
vn 1.5408503e-06 0.29293329 0.95613289
vn 0 0.29293287 0.95613307
vn 0 0.29293451 0.95613253
vn 1.1437257e-06 0.29294851 0.95612824
vn 9.0475595e-07 0.29294881 0.95612812
vn -1.802772e-05 0.29295391 0.95612657
vn 7.5677293e-05 0.29291031 0.95613992
vn 2.1176453e-05 0.29295087 0.95612752
vn 6.7415413e-06 0.29296336 0.95612371
vn 0 0.29298553 0.9561168
vn 0.56639856 0 0.82413143
vn 0.5663777 -1.4689801e-06 0.82414579
vn 0.56637031 3.3655178e-06 0.82415098
vn 0.56635928 1.1225036e-05 0.82415855
vn 0.56639791 4.8875023e-08 0.82413197
vn 0.56639785 4.8871723e-08 0.82413191
vn 0.56639707 0 0.8241325
vn 0.90390795 -0.42772707 0
vn 0.99999577 -0.0029082655 0
vn 0.99999577 0.0029006372 0
vn 0.94923389 0.31457141 0
vn 0.69377524 0.72019154 0
vn 0.013471304 0.99990922 0
vn -0.013377988 0.99991053 0
vn -0.54326338 0.8395623 0
vn -0.84781665 0.53028959 0
vn -0.99999577 0.0028951168 0
vn -0.99999577 -0.0028963294 0
vn -0.82630819 -0.56321818 0
vn -0.74500239 -0.66706187 0
vn -0.013448159 -0.99990952 0
vn 0.013350924 -0.99991083 0
vn 0.57851756 -0.81566989 0
vn 0.044868268 9.6352176e-07 -0.99899304
vn 0.46347764 2.5909412e-06 -0.88610864
vn 0.46348041 1.015487e-07 -0.88610715
vn 0.019643845 1.3639793e-07 -0.999807
vn 0.023726227 0.58441949 -0.81110471
vn 0.32099751 0.23232418 -0.91814268
vn 0.46069115 0.0051810346 -0.88754547
vn 0.021223979 0.018499516 -0.99960357
vn 0.02197152 -0.015209395 -0.99964285
vn 0.071495287 -0.065348588 -0.99529791
vn 0.13186356 -0.00024401101 -0.99126786
vn 0.037190422 -5.3947708e-05 -0.99930817
vn 5.8401956e-06 0.60671693 -0.79491788
vn 2.3203656e-06 0.60669386 -0.79493558
vn 2.3866994e-07 0.030417765 -0.99953723
vn 2.9723984e-07 0.034130342 -0.99941736
vn 2.3611615e-06 0.60668069 -0.7949456
vn 9.2105956e-06 0.60668117 -0.7949453
vn 1.9219558e-05 0.029022388 -0.99957871
vn 8.0594265e-07 0.018659178 -0.99982595
vn 0.077964008 0.045768932 -0.99590504
vn 0.0093029607 0.013333031 -0.99986786
vn 0.0029716829 0.0030747277 -0.99999088
vn 0.022646414 0.012103019 -0.99967027
vn -0.085329689 0.072321825 -0.99372447
vn -0.010865225 0.014702818 -0.99983281
vn -0.00014780051 0.022182286 -0.99975395
vn -0.0012190286 0.1355442 -0.99077058
vn 0.46349177 0 -0.88610119
vn 0.46349254 0 -0.88610083
vn 0.060353328 -5.0203027e-12 -0.99817711
vn 0.047358237 0 -0.99887794
vn -0.74500322 -0.66706079 0
vn -0.013448718 -0.99990958 0
vn 0.9039076 -0.42772788 0
vn 0.99999577 -0.0029082717 0
vn -0.99999583 -0.0028964481 0
vn -0.82630652 -0.56322056 0
vn -0.99999577 -0.0028964481 0
vn -0.013377985 0.99991047 0
vn -0.54326397 0.83956188 0
vn -0.013377986 0.99991053 0
vn 0.99969685 0 -0.024618728
vn 0.99999994 5.2200299e-08 0
vn 0.9996686 5.2435514e-08 -0.025743844
vn 0.99976814 0 -0.021534516
vn 0.99944615 -7.4721875e-08 -0.033275455
vn 0 0.99384475 -0.11078214
vn 4.4367687e-07 0.99253714 -0.12194254
vn -1 -5.2413974e-08 0
vn -0.99969691 -3.0956164e-07 -0.02461789
vn -0.99966252 -6.8004489e-08 -0.025976731
vn -0.9997682 -2.9043045e-07 -0.021534724
vn -0.99944627 -1.9345482e-07 -0.033274204
vn 6.0939615e-06 1 0
vn -1.8868917e-06 0.98468256 -0.17435692
vn 5.7046595e-06 0.98717159 -0.1596629
vn 0 0.99290341 -0.11892372
vn 2.6606549e-06 0.99264878 -0.12103072
vn -1 3.4575197e-07 0
vn -1 2.1391743e-06 0
vn -0.99449009 7.8875513e-07 -0.10483156
vn -0.9956823 2.806961e-07 -0.092826828
vn -2.6794748e-06 -0.98468286 -0.17435531
vn -8.4462545e-07 -0.98717093 -0.1596667
vn 0 -0.99290341 -0.11892311
vn -8.4227366e-07 -1 1.0725942e-06
vn -8.3215343e-07 -0.99253976 -0.12192059
vn -1.7859965e-07 -0.99384516 -0.11077788
vn -1.3368411e-06 -1 0
vn -1.9104075e-07 -0.99253774 -0.12193757
vn 0.99448979 0 -0.1048337
vn 0.99568194 0 -0.092830867
vn -1 3.3480561e-08 0
vn -0.99538404 7.151214e-08 -0.095972754
vn 0.0067735165 -0.013011443 -0.99989241
vn 0.0021836169 -0.0028979329 -0.99999344
vn -0.010411793 -0.012806475 -0.9998638
vn -0.0001390729 -0.020870702 -0.99978215
vn 0.46349531 3.2572593e-06 -0.8860994
vn 0.062185902 -1.6215205e-07 -0.99806458
vn 0.99538356 -2.8830033e-07 -0.095976539
vn -0.99976814 -1.9578492e-06 -0.021535277
vn -1 -2.2899571e-06 0
vn -1 -3.1849683e-07 0
vn -0.99940735 -9.2570851e-08 -0.034422867
vn 5.5426639e-08 -0.035062924 -0.99938512
vn 0 -0.6064893 -0.79509169
vn -1.3404581e-06 -0.60649008 -0.79509109
vn -2.1965764e-07 -0.037938219 -0.9992801
vn 1.611577e-05 -0.030110156 -0.99954659
vn 5.5781134e-06 -0.60648894 -0.79509199
vn -4.8974465e-07 -0.60649329 -0.79508853
vn -2.6127013e-08 -0.021163434 -0.99977601
vn 0.46037146 -0.0057778768 -0.88770747
vn 0.32097286 -0.23226637 -0.91816604
vn 0.023728948 -0.58420998 -0.81125563
vn 0.021715801 -0.020596925 -0.99955201
vn 0.99976814 0 -0.021535605
vn 0.99940735 0 -0.034423944
vn -0.99450642 1.815836e-06 -0.1046752
vn -1 2.8244258e-07 0
vn -0.10809033 -0.072586112 -0.99148762
vn -0.0017494457 -0.17283234 -0.98494965
vn 0.994506 3.0725405e-06 -0.10467982
vn -0.99999583 0.0028950328 0
vn -0.99999583 0.00289503 0
vn 0.4634805 1.0154078e-07 -0.88610709
vn 0.019544121 1.3634593e-07 -0.99980897
vn 0.99999994 5.21805e-08 0
vn 0.99967206 5.2412581e-08 -0.025607225
vn -1 -7.5724785e-08 0
vn -0.99965906 -5.980197e-08 -0.026111199
vn 0.13183022 0.00022871743 -0.99127227
vn 0.037187606 5.380248e-05 -0.99930835
vn 0.99999577 0.0029006456 0
vn 0.99999577 0.002900643 0
vn -0.84781581 0.5302909 0
vn 0.99970132 0 -0.024438266
vn -0.99970138 -1.4413164e-06 -0.024437899
vn -1 -1.7253202e-06 0
vn 0.94923359 0.31457216 0
vn 0.94923359 0.31457192 0
vn 2.7079157e-06 0.99267983 -0.12077623
vn 2.3543259e-06 0.60668081 -0.79494554
vn 7.9966537e-07 0.01860036 -0.99982703
vn 0.00013947526 -0.02086685 -0.99978232
vn 0.0015769455 -0.1725571 -0.98499835
vn 0.013350381 -0.99991089 0
vn 0.013350381 -0.99991083 0
vn 1.6517839e-06 0.99302316 -0.11792009
vn 0.57851774 -0.81566972 0
vn 1.4082198e-05 1 0
vn 1.4529128e-05 0.99234027 -0.12353473
vn -0.031765949 0.58293754 -0.81189591
vn -0.025680523 0.019093165 -0.99948794
vn -0.085261084 0 -0.99635863
vn -0.057133459 0 -0.99836653
vn -0.023674997 -1.6592525e-09 -0.99971968
vn -0.023801289 -1.6487601e-09 -0.9997167
vn -0.057751693 0 -0.99833101
vn -0.082620859 0 -0.99658102
vn -0.026333326 -0.021254871 -0.99942726
vn -0.031775277 -0.58270001 -0.8120659
vn -3.5228554e-06 -0.99233985 -0.1235378
vn 0.69377571 0.72019124 0
vn 0.69377571 0.72019118 0
vn 0.013471301 0.99990916 0
vn 0.013471302 0.99990928 0
vn 0.0001488588 0.022186525 -0.99975383
vn 0.0013382599 0.13571061 -0.99074763
vn -2.819449e-08 -0.020523114 -0.99978942
vn -4.6592876e-07 -0.60649347 -0.79508853
vn -8.4798444e-07 -1 1.1156577e-06
vn 0 -1 1.643388e-06
vn 0 -0.99302322 -0.11791883
vn -8.380847e-07 -0.99274164 -0.12026714
vn 2.7889608e-05 0.98484796 -0.17341983
vn 1.8817698e-05 1 0
vn 2.6791452e-06 1 0
vn 4.1839962e-06 0.98603052 -0.16656439
vn 1.5895586e-05 0.60668945 -0.79493886
vn 1.6034239e-05 0.036936115 -0.99931759
vn -0.0019127526 -0.0014809351 -0.99999702
vn -0.018426476 -0.0096795168 -0.99978334
vn -0.032679435 -4.7076581e-05 -0.99946588
vn -0.22389358 -0.00044174783 -0.97461349
vn -0.032679036 4.7361718e-05 -0.99946582
vn -0.22388163 0.00043424481 -0.97461623
vn -0.018650271 0.0082819611 -0.9997918
vn -0.0026046524 0.0015718635 -0.99999535
vn 2.1106802e-05 -0.041037727 -0.99915761
vn 1.6428647e-05 -0.60648483 -0.79509509
vn -1.3395565e-06 -1 0
vn 6.4884612e-06 -0.98484844 -0.17341758
vn 1.141138e-06 -0.9860304 -0.1665656
vn 4.324994e-05 0.99384499 -0.11077983
vn 4.1912474e-05 1 0
vn -0.37911662 0.24291155 -0.89289671
vn -0.54790425 0.004612172 -0.83652836
vn -0.55069005 0 -0.83470976
vn -0.55069143 0 -0.83470893
vn -0.55068946 -4.0453632e-08 -0.83471024
vn -0.5506894 -4.0430734e-08 -0.83471024
vn -0.55069071 0 -0.83470935
vn -0.55068988 0 -0.83470988
vn -0.54757959 -0.0051439344 -0.83673775
vn -0.37906757 -0.24284165 -0.89293659
vn -2.0428421e-05 -0.99384487 -0.11078041
vn 0.56630433 0 -0.82419622
vn 0.56630462 0 -0.82419598
vn 0.56630498 0 -0.82419574
vn 0.56630558 0 -0.82419544
vn -1.5415087e-06 -0.29293144 -0.95613343
vn 1.0151338e-05 -0.29292616 -0.95613509
vn 1.6258573e-05 -0.29292399 -0.95613575
vn 3.5774123e-05 -0.29291752 -0.95613778
vn 0 -0.2929295 -0.95613408
vn -2.2148444e-07 -0.29292893 -0.95613426
vn -2.2258357e-07 -0.2929289 -0.95613426
vn 0 -0.29292765 -0.95613456
vn -7.9593451e-07 -0.29293016 -0.95613384
vn -7.8195808e-07 -0.29292944 -0.95613414
vn -9.8111252e-07 -0.29292905 -0.95613414
vn -2.696089e-06 -0.29293007 -0.95613378
vn -0.56635427 1.139263e-05 -0.82416189
vn -0.5663597 3.4055927e-07 -0.82415819
vn -0.56634295 -4.4162502e-06 -0.8241697
vn -0.56632417 -9.312821e-06 -0.82418257
vn -0.5663467 8.5835254e-06 -0.82416719
vn -0.5663597 -1.2815031e-08 -0.82415819
vn -0.5663597 -6.5280673e-08 -0.82415819
vn -0.5663501 -1.0363593e-05 -0.82416475
vn -0.56632024 1.224571e-05 -0.82418525
vn -0.5663442 4.6880918e-06 -0.82416886
vn -0.56635886 -2.9817471e-07 -0.82415879
vn -0.56635189 -1.1115173e-05 -0.82416356
vn 2.6048336e-05 0.29295185 -0.95612723
vn 5.026433e-06 0.29296437 -0.95612335
vn -2.3611622e-06 0.29295853 -0.9561252
vn -1.0347232e-05 0.29294628 -0.95612884
vn 1.3393088e-05 0.29295474 -0.95612633
vn 1.3932606e-06 0.29294884 -0.95612806
vn 1.1577471e-06 0.29294857 -0.95612818
vn 0 0.29293254 -0.95613319
vn 5.710141e-05 0.29293117 -0.95613348
vn 1.5062424e-05 0.29294306 -0.95612985
vn 4.0449568e-06 0.29294392 -0.95612967
vn 0 0.29292247 -0.95613617
vn 0.56630576 0 -0.82419527
vn 0.56630945 -3.1659144e-06 -0.82419264
vn 0.56629592 7.2535609e-06 -0.82420206
vn 0.56627393 2.419225e-05 -0.82421714
vn 0.56630337 0 -0.82419682
vn 0.56630433 3.9103075e-08 -0.82419628
vn 0.56630433 3.9100435e-08 -0.82419628
vn 0.56630462 0 -0.8241961
vn 0.90390849 -0.42772585 0
vn 0.99999577 -0.0029082547 0
vn 0.99999577 0.0029006263 0
vn 0.94923419 0.31457034 0
vn 0.6937753 0.72019148 0
vn 0.013471303 0.99990922 0
vn -0.013377989 0.99991053 0
vn -0.54326421 0.83956176 0
vn -0.84781647 0.53028989 0
vn -0.99999577 0.0028950083 0
vn -0.99999571 -0.0028964509 0
vn -0.8263073 -0.56321949 0
vn -0.74500269 -0.66706139 0
vn -0.013448752 -0.99990958 0
vn 0.013350341 -0.99991089 0
vn 0.57851672 -0.81567061 0

# Mesh 'polySurface1' with 360 faces
g polySurface1
usemtl unwrapChekcerShader
f  1//1 2//1 3//1 4//1
f  4//2 3//2 5//2 6//2
f  6//3 5//3 7//3 8//3
f  8//4 7//4 2//4 1//4
f  2//5 7//5 5//5 3//5
f  8//6 1//6 4//6 6//6
f  9//7 10//7 11//7 12//7
f  12//5 11//5 13//5 14//5
f  14//8 13//8 15//8 16//8
f  16//6 15//6 10//6 9//6
f  10//4 15//4 13//4 11//4
f  16//2 9//2 12//2 14//2
f  17//7 18//7 19//7 20//7
f  20//5 19//5 21//5 22//5
f  22//8 21//8 23//8 24//8
f  24//6 23//6 18//6 17//6
f  18//4 23//4 21//4 19//4
f  24//2 17//2 20//2 22//2
f  25//1 26//1 27//1 28//1
f  28//5 27//5 29//5 30//5
f  30//3 29//3 31//3 32//3
f  32//6 31//6 26//6 25//6
f  26//4 31//4 29//4 27//4
f  32//2 25//2 28//2 30//2
f  33//9 34//10 35//11 36//12
f  37//13 38//14 39//15 40//16
f  41//17 42//18 43//19 44//20
f  45//21 46//22 47//23 48//24
f  49//25 50//26 51//27 52//28
f  53//29 54//30 55//31 56//32
f  57//33 58//34 59//35 60//36
f  61//37 62//38 63//39 64//40
f  65//41 66//42 67//43 68//44
f  69//45 70//46 71//47 72//48
f  73//49 74//50 65//51 68//52
f  75//53 76//54 77//55 78//56
f  79//57 80//58 81//59 82//4
f  83//60 84//61 85//62 86//4
f  87//63 88//64 83//65 86//63
f  89//66 90//67 91//68 92//2
f  93//2 94//69 95//70 96//2
f  97//71 98//72 99//73 100//63
f  101//74 102//75 103//76 104//5
f  105//2 106//77 107//78 108//2
f  109//79 110//80 111//81 112//82
f  113//83 114//84 115//85 116//6
f  117//86 118//87 119//88 120//89
f  121//90 122//91 123//4 124//4
f  125//2 126//92 94//69 93//2
f  47//23 46//22 127//93 128//94
f  51//27 50//26 129//95 130//96
f  39//15 38//14 131//97 132//98
f  85//62 84//61 133//99 134//4
f  135//100 136//101 137//2 138//2
f  139//102 140//103 141//104 142//105
f  143//106 144//107 145//108 146//109
f  147//110 148//111 149//112 150//113
f  151//4 152//114 117//115 120//4
f  137//2 136//101 106//77 105//2
f  56//32 55//31 140//103 139//102
f  60//36 59//35 144//107 143//106
f  64//40 63//39 148//111 147//110
f  123//4 122//91 152//114 151//4
f  91//116 126//92 125//2 92//2
f  128//94 127//93 41//17 44//20
f  130//96 129//95 153//117 154//118
f  132//98 131//97 33//9 36//12
f  134//4 133//99 79//119 82//4
f  155//120 156//121 74//50 73//49
f  35//11 34//10 157//122 158//123
f  81//59 80//58 159//124 160//125
f  161//126 162//127 90//67 89//66
f  43//19 42//18 163//128 164//129
f  71//47 70//46 165//130 166//131
f  77//132 156//121 155//120 78//133
f  158//123 157//122 62//38 61//37
f  160//125 159//124 121//134 124//4
f  107//135 162//127 161//126 108//2
f  164//129 163//128 54//30 53//29
f  166//131 165//130 167//136 168//137
f  169//138 170//139 102//75 101//74
f  171//140 172//141 50//26 49//25
f  129//95 50//26 172//141 173//142
f  153//117 129//95 173//142 174//143
f  67//43 66//42 175//144 176//145
f  99//146 170//139 169//138 100//5
f  48//24 47//23 172//141 171//140
f  173//142 172//141 47//23 128//94
f  174//143 173//142 128//94 44//20
f  176//145 175//144 69//147 72//148
f  177//149 178//150 98//72 97//71
f  179//151 180//152 46//22 45//21
f  127//93 46//22 180//152 181//153
f  41//17 127//93 181//153 182//154
f  182//154 183//155 42//18 41//17
f  163//128 42//18 183//155 184//156
f  54//30 163//128 184//156 185//157
f  55//31 54//30 185//157 186//158
f  140//103 55//31 186//158 187//159
f  141//104 140//103 187//159 188//160
f  111//81 110//80 189//161 190//162
f  167//163 191//164 192//165 168//166
f  193//167 194//168 53//29 56//32
f  195//169 193//167 56//32 139//102
f  196//170 195//169 139//102 142//105
f  197//171 198//172 109//173 112//174
f  192//165 191//164 76//54 75//53
f  59//35 58//34 194//168 193//167
f  144//107 59//35 193//167 195//169
f  145//108 144//107 195//169 196//170
f  115//85 114//84 198//172 197//171
f  103//175 199//176 200//177 104//178
f  52//28 51//27 201//179 202//180
f  203//181 201//179 51//27 130//96
f  204//182 203//181 130//96 154//118
f  154//118 205//183 206//184 204//182
f  207//185 206//184 205//183 208//186
f  209//187 207//185 208//186 57//33
f  210//188 209//187 57//33 60//36
f  211//189 210//188 60//36 143//106
f  212//190 211//189 143//106 146//109
f  213//191 214//192 113//193 116//6
f  200//177 199//176 88//64 87//63
f  202//180 201//179 38//14 37//13
f  131//97 38//14 201//179 203//181
f  33//9 131//97 203//181 204//182
f  204//182 206//184 34//10 33//9
f  157//122 34//10 206//184 207//185
f  62//38 157//122 207//185 209//187
f  63//39 62//38 209//187 210//188
f  148//111 63//39 210//188 211//189
f  149//112 148//111 211//189 212//190
f  119//88 118//87 214//192 213//191
f  95//194 178//150 177//149 96//195
f  215//196 216//197 180//152 179//151
f  181//153 180//152 216//197 217//198
f  182//154 181//153 217//198 218//199
f  218//199 219//200 183//155 182//154
f  184//156 183//155 219//200 220//201
f  185//157 184//156 220//201 221//202
f  186//158 185//157 221//202 222//203
f  187//159 186//158 222//203 223//204
f  188//160 187//159 223//204 224//205
f  190//162 189//161 135//206 138//207
f  61//208 64//209 122//91 121//90
f  152//114 122//91 64//209 147//210
f  117//115 152//114 147//210 150//211
f  150//212 149//213 118//87 117//86
f  214//192 118//87 149//213 212//214
f  113//193 214//192 212//214 146//215
f  146//216 145//217 114//84 113//83
f  198//172 114//84 145//217 196//218
f  109//173 198//172 196//218 142//219
f  142//220 141//221 110//80 109//79
f  189//161 110//80 141//221 188//222
f  135//206 189//161 188//222 224//223
f  224//224 223//225 136//101 135//100
f  106//77 136//101 223//225 222//226
f  107//78 106//77 222//226 221//227
f  221//228 220//229 162//127 107//135
f  90//67 162//127 220//229 219//230
f  91//68 90//67 219//230 218//231
f  218//232 217//233 126//92 91//116
f  94//69 126//92 217//233 216//234
f  95//70 94//69 216//234 215//235
f  215//236 179//237 178//150 95//194
f  98//72 178//150 179//237 45//238
f  99//73 98//72 45//238 48//239
f  48//240 171//241 170//139 99//146
f  102//75 170//139 171//241 49//242
f  103//76 102//75 49//242 52//243
f  52//244 202//245 199//176 103//175
f  88//64 199//176 202//245 37//246
f  83//65 88//64 37//246 40//247
f  40//248 39//249 84//61 83//60
f  133//99 84//61 39//249 132//250
f  79//119 133//99 132//250 36//251
f  36//209 35//252 80//58 79//57
f  159//124 80//58 35//252 158//253
f  121//134 159//124 158//253 61//254
f  44//255 43//256 70//46 69//45
f  165//130 70//46 43//256 164//257
f  167//136 165//130 164//257 53//258
f  53//259 194//260 191//164 167//163
f  76//54 191//164 194//260 58//261
f  77//55 76//54 58//261 57//262
f  57//263 208//264 156//121 77//132
f  74//50 156//121 208//264 205//265
f  65//51 74//50 205//265 154//266
f  154//267 153//268 66//42 65//41
f  175//144 66//42 153//268 174//269
f  69//147 175//144 174//269 44//270
f  225//271 226//272 227//273 228//274
f  229//275 230//276 231//277 232//278
f  233//279 234//280 235//281 236//282
f  237//283 238//284 239//285 240//286
f  241//287 242//288 243//289 244//290
f  245//291 246//292 247//293 248//294
f  249//295 250//296 251//297 252//298
f  253//299 254//300 255//301 256//302
f  257//303 68//44 67//304 258//304
f  259//305 72//48 71//47 260//306
f  73//307 68//52 257//308 261//309
f  75//310 78//311 262//56 263//312
f  264//313 82//4 81//314 265//315
f  266//316 86//4 85//4 267//317
f  87//63 86//63 266//318 268//319
f  89//320 92//2 269//321 270//322
f  93//2 96//2 271//323 272//324
f  97//325 100//5 273//326 274//327
f  101//74 104//5 275//328 276//329
f  105//330 108//331 277//332 278//333
f  279//334 112//82 111//81 280//335
f  281//336 116//6 115//337 282//338
f  283//339 120//6 119//340 284//341
f  285//342 124//62 123//4 286//343
f  125//344 93//2 272//324 287//345
f  239//285 288//346 289//347 240//286
f  243//289 290//348 291//349 244//290
f  231//277 292//350 293//351 232//278
f  85//4 134//4 294//352 267//317
f  295//353 138//354 137//355 296//356
f  297//357 298//358 299//359 300//360
f  301//361 302//362 303//363 304//364
f  305//365 306//366 307//367 308//368
f  151//4 120//4 283//369 309//370
f  137//355 105//330 278//333 296//356
f  246//292 297//357 300//360 247//293
f  250//296 301//361 304//364 251//297
f  254//300 305//365 308//368 255//301
f  123//4 151//4 309//370 286//343
f  269//371 92//372 125//344 287//345
f  288//346 234//280 233//279 289//347
f  290//348 310//373 311//374 291//349
f  292//350 226//272 225//271 293//351
f  134//4 82//4 264//375 294//352
f  155//376 73//307 261//309 312//377
f  227//273 313//378 314//379 228//274
f  81//314 160//380 315//381 265//315
f  161//382 89//320 270//322 316//383
f  235//281 317//384 318//385 236//282
f  71//47 166//386 319//387 260//306
f  262//388 78//133 155//376 312//377
f  313//378 253//299 256//302 314//379
f  160//380 124//4 285//389 315//381
f  277//390 108//391 161//382 316//383
f  317//384 245//291 248//294 318//385
f  166//386 168//392 320//393 319//387
f  169//138 101//74 276//329 321//394
f  322//395 241//287 244//290 323//396
f  291//349 324//397 323//396 244//290
f  311//374 325//398 324//397 291//349
f  67//304 176//399 326//400 258//304
f  273//401 100//5 169//138 321//394
f  238//284 322//395 323//396 239//285
f  324//397 288//346 239//285 323//396
f  325//398 234//280 288//346 324//397
f  176//399 72//148 259//402 326//400
f  177//403 97//325 274//327 327//404
f  328//405 237//283 240//286 329//406
f  289//347 330//407 329//406 240//286
f  233//279 331//408 330//407 289//347
f  331//408 233//279 236//282 332//409
f  318//385 333//410 332//409 236//282
f  248//294 334//411 333//410 318//385
f  247//293 335//412 334//411 248//294
f  300//360 336//413 335//412 247//293
f  299//359 337//414 336//413 300//360
f  111//81 190//162 338//415 280//335
f  320//416 168//417 192//418 339//419
f  340//420 246//292 245//291 341//421
f  342//422 297//357 246//292 340//420
f  343//423 298//358 297//357 342//422
f  197//424 112//425 279//426 344//427
f  192//418 75//310 263//312 339//419
f  251//297 340//420 341//421 252//298
f  304//364 342//422 340//420 251//297
f  303//363 343//423 342//422 304//364
f  115//337 197//424 344//427 282//338
f  275//428 104//429 200//430 345//431
f  242//288 346//432 347//433 243//289
f  348//434 290//348 243//289 347//433
f  349//435 310//373 290//348 348//434
f  310//373 349//435 350//436 351//437
f  352//438 353//439 351//437 350//436
f  354//440 249//295 353//439 352//438
f  355//441 250//296 249//295 354//440
f  356//442 301//361 250//296 355//441
f  357//443 302//362 301//361 356//442
f  213//444 116//6 281//445 358//446
f  200//430 87//63 268//319 345//431
f  346//432 229//275 232//278 347//433
f  293//351 348//434 347//433 232//278
f  225//271 349//435 348//434 293//351
f  349//435 225//271 228//274 350//436
f  314//379 352//438 350//436 228//274
f  256//302 354//440 352//438 314//379
f  255//301 355//441 354//440 256//302
f  308//368 356//442 355//441 255//301
f  307//367 357//443 356//442 308//368
f  119//340 213//444 358//446 284//341
f  271//447 96//448 177//403 327//404
f  359//449 328//405 329//406 360//450
f  330//407 361//451 360//450 329//406
f  331//408 362//452 361//451 330//407
f  362//452 331//408 332//409 363//453
f  333//410 364//454 363//453 332//409
f  334//411 365//455 364//454 333//410
f  335//412 366//456 365//455 334//411
f  336//413 367//457 366//456 335//412
f  337//414 368//458 367//457 336//413
f  190//162 138//207 295//459 338//415
f  253//460 285//342 286//343 254//461
f  309//370 305//462 254//461 286//343
f  283//369 306//463 305//462 309//370
f  306//464 283//339 284//341 307//465
f  358//446 357//466 307//465 284//341
f  281//445 302//467 357//466 358//446
f  302//468 281//336 282//338 303//469
f  344//427 343//470 303//469 282//338
f  279//426 298//471 343//470 344//427
f  298//472 279//334 280//335 299//473
f  338//415 337//474 299//473 280//335
f  295//459 368//475 337//474 338//415
f  368//476 295//353 296//356 367//477
f  278//333 366//478 367//477 296//356
f  277//332 365//479 366//478 278//333
f  365//480 277//390 316//383 364//481
f  270//322 363//482 364//481 316//383
f  269//321 362//483 363//482 270//322
f  362//484 269//371 287//345 361//485
f  272//324 360//486 361//485 287//345
f  271//323 359//487 360//486 272//324
f  359//488 271//447 327//404 328//489
f  274//327 237//490 328//489 327//404
f  273//326 238//491 237//490 274//327
f  238//492 273//401 321//394 322//493
f  276//329 241//494 322//493 321//394
f  275//328 242//495 241//494 276//329
f  242//496 275//428 345//431 346//497
f  268//319 229//498 346//497 345//431
f  266//318 230//499 229//498 268//319
f  230//500 266//316 267//317 231//501
f  294//352 292//502 231//501 267//317
f  264//375 226//503 292//502 294//352
f  226//504 264//313 265//315 227//505
f  315//381 313//506 227//505 265//315
f  285//389 253//507 313//506 315//381
f  234//508 259//305 260//306 235//509
f  319//387 317//510 235//509 260//306
f  320//393 245//511 317//510 319//387
f  245//512 320//416 339//419 341//513
f  263//312 252//514 341//513 339//419
f  262//56 249//515 252//514 263//312
f  249//516 262//388 312//377 353//517
f  261//309 351//518 353//517 312//377
f  257//308 310//519 351//518 261//309
f  310//520 257//303 258//304 311//521
f  326//400 325//522 311//521 258//304
f  259//402 234//523 325//522 326//400

